<?xml version="1.0" encoding="UTF-8" standalone="no"?>
<!-- Created with Inkscape (http://www.inkscape.org/) -->

<svg
   xmlns:dc="http://purl.org/dc/elements/1.1/"
   xmlns:cc="http://creativecommons.org/ns#"
   xmlns:rdf="http://www.w3.org/1999/02/22-rdf-syntax-ns#"
   xmlns:svg="http://www.w3.org/2000/svg"
   xmlns="http://www.w3.org/2000/svg"
   xmlns:sodipodi="http://sodipodi.sourceforge.net/DTD/sodipodi-0.dtd"
   xmlns:inkscape="http://www.inkscape.org/namespaces/inkscape"
   width="734.35284"
   height="510.79968"
   id="svg2"
   version="1.1"
   inkscape:version="0.48.2 r9819"
   sodipodi:docname="grid_origin.pdf">
  <defs
     id="defs4">
    <marker
       inkscape:stockid="Arrow2Lend"
       orient="auto"
       refY="0"
       refX="0"
       id="Arrow2Lend"
       style="overflow:visible">
      <path
         id="path4042"
         style="font-size:12px;fill-rule:evenodd;stroke-width:0.625;stroke-linejoin:round"
         d="M 8.7185878,4.0337352 -2.2072895,0.01601326 8.7185884,-4.0017078 c -1.7454984,2.3720609 -1.7354408,5.6174519 -6e-7,8.035443 z"
         transform="matrix(-1.1,0,0,-1.1,-1.1,0)"
         inkscape:connector-curvature="0" />
    </marker>
    <marker
       inkscape:stockid="Arrow1Mend"
       orient="auto"
       refY="0"
       refX="0"
       id="Arrow1Mend"
       style="overflow:visible">
      <path
         id="path4030"
         d="M 0,0 5,-5 -12.5,0 5,5 0,0 z"
         style="fill-rule:evenodd;stroke:#000000;stroke-width:1pt;marker-start:none"
         transform="matrix(-0.4,0,0,-0.4,-4,0)"
         inkscape:connector-curvature="0" />
    </marker>
    <marker
       inkscape:stockid="Arrow2Lend"
       orient="auto"
       refY="0"
       refX="0"
       id="Arrow2Lend-1"
       style="overflow:visible">
      <path
         inkscape:connector-curvature="0"
         id="path4042-5"
         style="font-size:12px;fill-rule:evenodd;stroke-width:0.625;stroke-linejoin:round"
         d="M 8.7185878,4.0337352 -2.2072895,0.01601326 8.7185884,-4.0017078 c -1.7454984,2.3720609 -1.7354408,5.6174519 -6e-7,8.035443 z"
         transform="matrix(-1.1,0,0,-1.1,-1.1,0)" />
    </marker>
    <clipPath
       id="clipPath6055"
       clipPathUnits="userSpaceOnUse">
      <path
         id="path6057"
         clip-rule="evenodd"
         d="m 2639.11,669.043 120.71,43.918 102.68,68.211 146.42,61.074 6.99,409.434 -374.61,-183.09 -3.39,-60.65 9.15,-19.713 -7.65,-44.477 5.29,-46.164 -6.41,-75.309 13.02,-6.785 -7.28,-39.308 5.61,-56.461 -10.53,-50.68 z"
         inkscape:connector-curvature="0" />
    </clipPath>
    <clipPath
       id="clipPath5787"
       clipPathUnits="userSpaceOnUse">
      <path
         id="path5789"
         clip-rule="evenodd"
         d="m 2640.09,671.297 -1626.11,369.183 13.06,70.9 -10.23,36 8.06,52.29 -14.76,2.71 10.29,78.24 -7.15,36.31 9.81,57.99 -9.63,17.38 7.55,57.61 1621.3,-379.07 -3.39,-60.64 9.16,-19.72 -7.66,-44.476 5.29,-46.164 -6.41,-75.309 13.02,-6.785 -7.28,-39.308 5.62,-56.461 -10.54,-50.68 z"
         inkscape:connector-curvature="0" />
    </clipPath>
  </defs>
  <sodipodi:namedview
     id="base"
     pagecolor="#ffffff"
     bordercolor="#666666"
     borderopacity="1.0"
     inkscape:pageopacity="0.0"
     inkscape:pageshadow="2"
     inkscape:zoom="0.70710678"
     inkscape:cx="482.87036"
     inkscape:cy="63.597152"
     inkscape:document-units="px"
     inkscape:current-layer="layer1"
     showgrid="false"
     fit-margin-top="0"
     fit-margin-left="0"
     fit-margin-right="0"
     fit-margin-bottom="0"
     inkscape:window-width="1600"
     inkscape:window-height="1117"
     inkscape:window-x="0"
     inkscape:window-y="30"
     inkscape:window-maximized="1" />
  <metadata
     id="metadata7">
    <rdf:RDF>
      <cc:Work
         rdf:about="">
        <dc:format>image/svg+xml</dc:format>
        <dc:type
           rdf:resource="http://purl.org/dc/dcmitype/StillImage" />
        <dc:title></dc:title>
      </cc:Work>
    </rdf:RDF>
  </metadata>
  <g
     inkscape:label="Layer 1"
     inkscape:groupmode="layer"
     id="layer1"
     transform="translate(-9.2820428,-84.791909)">
    <path
       style="fill:none;stroke:#000000;stroke-width:1px;stroke-linecap:butt;stroke-linejoin:miter;stroke-opacity:1;marker-end:url(#Arrow2Lend)"
       d="M 115.3998,516.31949 38.984651,562.07113"
       id="path3004-7"
       inkscape:connector-curvature="0" />
    <path
       style="fill:none;stroke:#000000;stroke-width:0.99999994px;stroke-linecap:butt;stroke-linejoin:miter;stroke-opacity:1;marker-end:url(#Arrow2Lend)"
       d="m 641.09349,509.06152 79.0146,25.0452"
       id="path3006-7-9-9-9-2"
       inkscape:connector-curvature="0" />
    <path
       style="fill:none;stroke:#000000;stroke-width:0.99999994px;stroke-linecap:butt;stroke-linejoin:miter;stroke-opacity:1;marker-end:url(#Arrow2Lend)"
       d="m 307.53033,193.48723 0,-76.3845"
       id="path3006-7-9-9-9-2-4"
       inkscape:connector-curvature="0"
       sodipodi:nodetypes="cc" />
    <text
       xml:space="preserve"
       style="font-size:12px;font-style:normal;font-weight:normal;line-height:125%;letter-spacing:0px;word-spacing:0px;fill:#000000;fill-opacity:1;stroke:none;font-family:Bitstream Vera Sans"
       x="63"
       y="531.36218"
       id="text5234"
       sodipodi:linespacing="125%"><tspan
         sodipodi:role="line"
         id="tspan5236"
         x="63"
         y="531.36218"
         style="font-size:20px;font-style:italic" /></text>
    <g
       id="g7391">
      <path
         inkscape:connector-curvature="0"
         id="path3004"
         d="M 307.92217,400.51843 145.71429,498.07647"
         style="fill:none;stroke:#000000;stroke-width:1px;stroke-linecap:butt;stroke-linejoin:miter;stroke-opacity:1" />
      <path
         inkscape:connector-curvature="0"
         id="path3004-4"
         d="M 368.25551,420.31713 205.71429,518.07647"
         style="fill:none;stroke:#000000;stroke-width:1px;stroke-linecap:butt;stroke-linejoin:miter;stroke-opacity:1" />
      <path
         inkscape:connector-curvature="0"
         id="path3004-4-8"
         d="M 427.76693,439.61218 265.71429,537.07647"
         style="fill:none;stroke:#000000;stroke-width:1px;stroke-linecap:butt;stroke-linejoin:miter;stroke-opacity:1" />
      <path
         inkscape:connector-curvature="0"
         id="path3004-4-8-3"
         d="M 487.76693,458.61218 325.71429,556.07647"
         style="fill:none;stroke:#000000;stroke-width:1px;stroke-linecap:butt;stroke-linejoin:miter;stroke-opacity:1" />
      <path
         inkscape:connector-curvature="0"
         id="path3004-4-8-1"
         d="M 548.28441,478.29968 385.71429,576.07647"
         style="fill:none;stroke:#000000;stroke-width:1px;stroke-linecap:butt;stroke-linejoin:miter;stroke-opacity:1" />
      <path
         inkscape:connector-curvature="0"
         id="path3004-4-8-3-5"
         d="m 607.73787,497.62968 -162.0236,97.44676"
         style="fill:none;stroke:#000000;stroke-width:0.99999994px;stroke-linecap:butt;stroke-linejoin:miter;stroke-opacity:1" />
      <path
         inkscape:connector-curvature="0"
         id="path3006-7"
         d="m 146.11812,498.01755 300.0513,97.07403"
         style="fill:none;stroke:#000000;stroke-width:0.99999994px;stroke-linecap:butt;stroke-linejoin:miter;stroke-opacity:1" />
      <path
         inkscape:connector-curvature="0"
         id="path3006-7-9"
         d="M 199.74077,465.48628 499.5764,562.49005"
         style="fill:none;stroke:#000000;stroke-width:0.99999982px;stroke-linecap:butt;stroke-linejoin:miter;stroke-opacity:1" />
      <path
         inkscape:connector-curvature="0"
         id="path3006-7-9-9"
         d="m 253.55528,433.01753 300.11415,97.0945"
         style="fill:none;stroke:#000000;stroke-width:1px;stroke-linecap:butt;stroke-linejoin:miter;stroke-opacity:1" />
      <path
         inkscape:connector-curvature="0"
         id="path3006-7-9-9-9"
         d="M 307.43347,400.56955 607.6656,497.70249"
         style="fill:none;stroke:#000000;stroke-width:0.99999994px;stroke-linecap:butt;stroke-linejoin:miter;stroke-opacity:1" />
      <path
         sodipodi:nodetypes="cc"
         inkscape:connector-curvature="0"
         id="path3006-7-9-9-9-2-4-3"
         d="m 146.18897,497.40531 0,-180.22406"
         style="fill:none;stroke:#000000;stroke-width:0.99999994px;stroke-linecap:butt;stroke-linejoin:miter;stroke-opacity:1;marker-end:none" />
      <path
         sodipodi:nodetypes="cc"
         inkscape:connector-curvature="0"
         id="path3006-7-9-9-9-2-4-3-9"
         d="m 200.17679,465.42055 0,-180.78444"
         style="fill:none;stroke:#000000;stroke-width:0.99999988px;stroke-linecap:butt;stroke-linejoin:miter;stroke-opacity:1;marker-end:none" />
      <path
         sodipodi:nodetypes="cc"
         inkscape:connector-curvature="0"
         id="path3006-7-9-9-9-2-4-3-9-2"
         d="m 253.94369,432.84774 0,-180.2567"
         style="fill:none;stroke:#000000;stroke-width:0.99999988px;stroke-linecap:butt;stroke-linejoin:miter;stroke-opacity:1;marker-end:none" />
      <path
         sodipodi:nodetypes="cc"
         inkscape:connector-curvature="0"
         id="path3006-7-9-9-9-2-4-3-9-2-9"
         d="m 307.56935,401.03729 0,-180.60914"
         style="fill:none;stroke:#000000;stroke-width:0.99999988px;stroke-linecap:butt;stroke-linejoin:miter;stroke-opacity:1;marker-end:none" />
      <path
         inkscape:connector-curvature="0"
         id="path3004-6"
         d="M 308.6664,339.81884 146.45852,437.37688"
         style="fill:none;stroke:#000000;stroke-width:1px;stroke-linecap:butt;stroke-linejoin:miter;stroke-opacity:1" />
      <path
         inkscape:connector-curvature="0"
         id="path3004-6-0"
         d="M 308.51015,279.77726 146.30227,377.3353"
         style="fill:none;stroke:#000000;stroke-width:1px;stroke-linecap:butt;stroke-linejoin:miter;stroke-opacity:1" />
      <path
         inkscape:connector-curvature="0"
         id="path3004-6-0-9"
         d="M 308.26015,219.84108 146.05227,317.39912"
         style="fill:none;stroke:#000000;stroke-width:1px;stroke-linecap:butt;stroke-linejoin:miter;stroke-opacity:1" />
      <path
         sodipodi:nodetypes="cc"
         inkscape:connector-curvature="0"
         id="path3006-7-9-9-9-2-4-3-9-2-9-2"
         d="m 368.09327,419.78265 0,-180.60914"
         style="fill:none;stroke:#000000;stroke-width:0.99999988px;stroke-linecap:butt;stroke-linejoin:miter;stroke-opacity:1;marker-end:none" />
      <path
         sodipodi:nodetypes="cc"
         inkscape:connector-curvature="0"
         id="path3006-7-9-9-9-2-4-3-9-2-9-2-5"
         d="m 427.53444,439.89101 0,-180.60914"
         style="fill:none;stroke:#000000;stroke-width:0.99999988px;stroke-linecap:butt;stroke-linejoin:miter;stroke-opacity:1;marker-end:none" />
      <path
         sodipodi:nodetypes="cc"
         inkscape:connector-curvature="0"
         id="path3006-7-9-9-9-2-4-3-9-2-9-2-5-0"
         d="m 487.11446,458.60529 0,-180.60914"
         style="fill:none;stroke:#000000;stroke-width:0.99999988px;stroke-linecap:butt;stroke-linejoin:miter;stroke-opacity:1;marker-end:none" />
      <path
         sodipodi:nodetypes="cc"
         inkscape:connector-curvature="0"
         id="path3006-7-9-9-9-2-4-3-9-2-9-2-5-0-9"
         d="m 547.72048,478.36203 0,-180.60914"
         style="fill:none;stroke:#000000;stroke-width:0.99999988px;stroke-linecap:butt;stroke-linejoin:miter;stroke-opacity:1;marker-end:none" />
      <path
         sodipodi:nodetypes="cc"
         inkscape:connector-curvature="0"
         id="path3006-7-9-9-9-2-4-3-9-2-9-2-5-0-9-2"
         d="m 607.42681,498.00635 0,-180.60914"
         style="fill:none;stroke:#000000;stroke-width:0.99999988px;stroke-linecap:butt;stroke-linejoin:miter;stroke-opacity:1;marker-end:none" />
      <path
         inkscape:connector-curvature="0"
         id="path3006-7-9-9-9-8"
         d="m 307.69643,340.23322 300.23213,97.13294"
         style="fill:none;stroke:#000000;stroke-width:0.99999994px;stroke-linecap:butt;stroke-linejoin:miter;stroke-opacity:1" />
      <path
         inkscape:connector-curvature="0"
         id="path3006-7-9-9-9-8-0"
         d="m 307.85268,279.95197 300.23213,97.13294"
         style="fill:none;stroke:#000000;stroke-width:0.99999994px;stroke-linecap:butt;stroke-linejoin:miter;stroke-opacity:1" />
      <path
         inkscape:connector-curvature="0"
         id="path3006-7-9-9-9-8-0-6"
         d="m 307.79018,219.95197 300.23213,97.13294"
         style="fill:none;stroke:#000000;stroke-width:0.99999994px;stroke-linecap:butt;stroke-linejoin:miter;stroke-opacity:1" />
      <path
         inkscape:connector-curvature="0"
         id="path5710"
         d="m 202.68751,464.17468 180.31251,58.68749"
         style="fill:none;stroke:#006bff;stroke-width:4;stroke-linecap:butt;stroke-linejoin:miter;stroke-miterlimit:4;stroke-opacity:1;stroke-dasharray:none" />
      <path
         inkscape:connector-curvature="0"
         id="path5710-1"
         d="m 309.3125,401.11218 -108.5625,64.5"
         style="fill:none;stroke:#ff0000;stroke-width:4;stroke-linecap:butt;stroke-linejoin:miter;stroke-miterlimit:4;stroke-opacity:1;stroke-dasharray:none" />
      <path
         sodipodi:nodetypes="cc"
         inkscape:connector-curvature="0"
         id="path3006-7-9-9-9-2-4-3-9-2-9-0"
         d="m 380.45595,523.87496 0,-122.39996"
         style="fill:none;stroke:#00ff00;stroke-width:4;stroke-linecap:butt;stroke-linejoin:miter;stroke-miterlimit:4;stroke-opacity:1;stroke-dasharray:none;marker-end:none" />
      <path
         transform="matrix(0.64907425,0,0,0.70634554,132.85163,117.65249)"
         d="m 391,400.86218 c 0,4.69442 -4.14137,8.5 -9.25,8.5 -5.10863,0 -9.25,-3.80558 -9.25,-8.5 0,-4.69442 4.14137,-8.5 9.25,-8.5 5.10863,0 9.25,3.80558 9.25,8.5 z"
         sodipodi:ry="8.5"
         sodipodi:rx="9.25"
         sodipodi:cy="400.86218"
         sodipodi:cx="381.75"
         id="path5748"
         style="color:#000000;fill:#000000;fill-opacity:1;stroke:#f2ff00;stroke-width:0;stroke-linecap:butt;stroke-linejoin:miter;stroke-miterlimit:4;stroke-opacity:1;stroke-dasharray:none;stroke-dashoffset:0;marker:none;visibility:visible;display:inline;overflow:visible;enable-background:accumulate"
         sodipodi:type="arc" />
    </g>
    <path
       id="path6399"
       style="fill:#231f20;fill-opacity:1;fill-rule:evenodd;stroke:none"
       d="m 20.382543,576.30728 c 0,-0.90796 0.96526,-4.5398 3.37841,-4.5398 0.16088,0 0.96527,0 1.76965,0.54507 -0.96526,0 -1.60877,1.08865 -1.60877,1.99661 0,0.54508 0.32444,1.45304 1.28702,1.45304 0.80438,0 1.93052,-0.54508 1.93052,-2.361 0,-1.9966 -2.08872,-2.54168 -3.37842,-2.54168 -2.09139,0 -3.05665,1.99811 -3.70016,2.90607 -0.96526,-2.72388 -2.73491,-2.90607 -3.85836,-2.90607 -3.54197,0 -5.63069,5.26556 -5.63069,5.99283 0,0.72577 0.31907,0.72577 0.31907,0.72577 0.16088,0 0.48531,-0.36289 0.48531,-0.72577 1.28434,-4.35911 3.53661,-5.08487 4.82631,-5.08487 0.64082,0 1.92784,0.18219 1.92784,2.54168 0,1.09016 -0.64351,3.99623 -1.92784,9.62467 -0.64619,2.5432 -1.77233,3.99472 -3.54197,3.99472 0,0 -0.96526,0 -1.60877,-0.18078 0.80438,-0.36288 1.60877,-1.27084 1.60877,-2.361 0,-1.27084 -0.80439,-1.45304 -1.28434,-1.45304 -0.96794,0 -2.0940802,1.09016 -2.0940802,2.361 0,1.99812 1.7696502,2.90608 3.3784202,2.90608 2.25227,0 3.54197,-2.90608 3.86104,-3.26896 0.48531,1.45304 1.76964,3.26896 3.86104,3.26896 3.53929,0 5.63069,-5.26708 5.63069,-6.53792 0,-0.18219 -0.15909,-0.18219 -0.48263,-0.18219 -0.32175,0 -0.32175,0 -0.32175,0.18219 -1.28702,4.3576 -3.53929,5.26556 -4.82631,5.26556 -1.28701,0 -2.0914,-1.08864 -2.0914,-2.54168 0,-0.90796 0.32444,-1.81592 0.80439,-3.44964 l 1.28701,-5.62996"
       inkscape:connector-curvature="0" />
    <path
       id="path6417"
       style="fill:#231f20;fill-opacity:1;fill-rule:evenodd;stroke:none"
       d="m 743.63489,538.97239 c 0,-0.72939 0,-0.72939 0,-0.90795 0,-0.54781 -0.64619,-1.27418 -1.12882,-1.27418 -0.16087,0 -0.80438,0.36622 -1.28433,0.90796 0,0.36622 -0.16356,1.45274 -0.48531,2.3607 -0.31908,0.90796 -0.48263,1.99751 -0.48263,3.26866 l -1.76965,7.26367 c 0,0.54478 -1.60877,3.08707 -3.86104,3.08707 -1.93052,0 -2.41315,-1.63433 -2.41315,-3.08707 0,-1.81592 0.48263,-4.35518 1.77232,-7.98702 0.64083,-1.63735 0.80439,-2.00053 0.80439,-2.90849 0,-1.6313 -0.96794,-3.08707 -2.73759,-3.08707 -3.69748,0 -4.98718,5.81095 -4.98718,5.99556 0,0.72335 0.48531,0.72335 0.48531,0.72335 0.31907,0 0.64083,-0.36319 0.64083,-0.90796 0.96794,-3.81344 2.25227,-4.90299 3.53929,-4.90299 0.32175,0 0.96526,0 0.96526,1.08955 0,1.08956 -0.48263,1.99752 -0.64351,2.90548 -1.28433,4.3582 -2.08872,6.7189 -2.08872,8.35625 0,3.63184 2.2496,5.08155 4.341,5.08155 1.60876,0 2.57402,-0.90796 3.53928,-2.1791 -0.48263,2.1791 -0.64082,4.17661 -2.24959,6.53731 -0.80438,1.08955 -2.25496,2.1791 -3.86372,2.1791 -0.48263,0 -2.0914,0 -2.89579,-1.45274 0.80439,0 1.12882,0 1.60877,-0.54477 0.48263,-0.18159 0.80439,-0.90796 0.80439,-1.63433 0,-1.27114 -1.12614,-1.45273 -1.28434,-1.45273 -0.80438,0 -2.09408,0.72939 -2.09408,2.54531 0,1.99448 1.60877,3.44722 3.86105,3.44722 3.53929,0 7.23945,-3.44722 8.20471,-8.17164 l 3.70285,-15.2507"
       inkscape:connector-curvature="0" />
    <path
       id="path6419"
       style="fill:#231f20;fill-opacity:1;fill-rule:evenodd;stroke:none"
       d="m 306.94891,99.319269 c 1.76697,-2.3607 2.8931,-3.45025 4.18012,-4.5398 0,0 2.25495,-2.1791 3.53929,-3.63184 3.37841,-3.63184 4.18279,-5.81094 4.18279,-5.81094 0,-0.54478 -0.32175,-0.54478 -0.48263,-0.54478 -0.32175,0 -0.32175,0 -0.6435,0.54478 -0.96526,1.81592 -1.76965,2.72388 -2.57403,2.72388 -0.64351,0 -1.28702,-0.90796 -1.76697,-1.45274 -0.80438,-0.90796 -1.28969,-1.81592 -2.57671,-1.81592 -2.57402,0 -4.02192,3.81343 -4.02192,4.72139 0,0.18159 0,0.18159 0.16356,0.18159 0.47995,0 0.47995,0 0.47995,-0.18159 0.80439,-1.81592 2.89578,-1.99751 3.21754,-1.99751 0.6435,0 1.28701,0.18159 2.25227,0.7294 1.2897,0.72334 1.76965,0.72334 2.57403,0.72334 -1.28433,1.63432 -4.1828,4.5398 -4.8263,5.08457 -1.93052,1.81592 -1.93052,1.81592 -3.21754,3.27168 -2.57403,2.902451 -3.86104,5.263141 -3.86104,5.263141 0,0.54478 0.64351,0.54478 0.64351,0.54478 0.16087,0 0.16087,0 0.48263,-0.54478 0.80438,-1.45273 1.76964,-2.723881 3.05934,-2.723881 0.80438,0 0.96258,0.726371 2.08871,1.815921 0.48263,0.90796 1.28702,1.45274 2.25228,1.45274 3.70285,0 5.63069,-5.266171 5.63069,-6.174131 0,-0.18159 -0.16088,-0.54175 -0.48263,-0.54175 -0.16088,0 -0.48263,0.36016 -0.48263,0.54175 -0.80439,2.72388 -3.05666,3.631841 -4.34368,3.631841 -0.48263,0 -1.28701,-0.36318 -2.0914,-0.726371 -1.28701,-0.54477 -1.76696,-0.72334 -2.57134,-0.72334 0,0 -0.48532,0 -0.80439,0.17857 l 0,0"
       inkscape:connector-curvature="0" />
  </g>
</svg>
