<?xml version="1.0" encoding="UTF-8" standalone="no"?>
<!-- Created with Inkscape (http://www.inkscape.org/) -->

<svg
   xmlns:dc="http://purl.org/dc/elements/1.1/"
   xmlns:cc="http://creativecommons.org/ns#"
   xmlns:rdf="http://www.w3.org/1999/02/22-rdf-syntax-ns#"
   xmlns:svg="http://www.w3.org/2000/svg"
   xmlns="http://www.w3.org/2000/svg"
   xmlns:sodipodi="http://sodipodi.sourceforge.net/DTD/sodipodi-0.dtd"
   xmlns:inkscape="http://www.inkscape.org/namespaces/inkscape"
   width="315.11224"
   height="386.84937"
   id="svg2"
   version="1.1"
   inkscape:version="0.48.2 r9819"
   sodipodi:docname="movie_file_layout.eps">
  <defs
     id="defs4">
    <marker
       inkscape:stockid="Arrow2Lend"
       orient="auto"
       refY="0"
       refX="0"
       id="Arrow2Lend"
       style="overflow:visible">
      <path
         id="path4042"
         style="font-size:12px;fill-rule:evenodd;stroke-width:0.625;stroke-linejoin:round"
         d="M 8.7185878,4.0337352 -2.2072895,0.01601326 8.7185884,-4.0017078 c -1.7454984,2.3720609 -1.7354408,5.6174519 -6e-7,8.035443 z"
         transform="matrix(-1.1,0,0,-1.1,-1.1,0)"
         inkscape:connector-curvature="0" />
    </marker>
    <marker
       inkscape:stockid="Arrow1Mend"
       orient="auto"
       refY="0"
       refX="0"
       id="Arrow1Mend"
       style="overflow:visible">
      <path
         id="path4030"
         d="M 0,0 5,-5 -12.5,0 5,5 0,0 z"
         style="fill-rule:evenodd;stroke:#000000;stroke-width:1pt;marker-start:none"
         transform="matrix(-0.4,0,0,-0.4,-4,0)"
         inkscape:connector-curvature="0" />
    </marker>
    <marker
       inkscape:stockid="Arrow2Lend"
       orient="auto"
       refY="0"
       refX="0"
       id="Arrow2Lend-1"
       style="overflow:visible">
      <path
         inkscape:connector-curvature="0"
         id="path4042-5"
         style="font-size:12px;fill-rule:evenodd;stroke-width:0.625;stroke-linejoin:round"
         d="M 8.7185878,4.0337352 -2.2072895,0.01601326 8.7185884,-4.0017078 c -1.7454984,2.3720609 -1.7354408,5.6174519 -6e-7,8.035443 z"
         transform="matrix(-1.1,0,0,-1.1,-1.1,0)" />
    </marker>
    <clipPath
       id="clipPath6055"
       clipPathUnits="userSpaceOnUse">
      <path
         id="path6057"
         clip-rule="evenodd"
         d="m 2639.11,669.043 120.71,43.918 102.68,68.211 146.42,61.074 6.99,409.434 -374.61,-183.09 -3.39,-60.65 9.15,-19.713 -7.65,-44.477 5.29,-46.164 -6.41,-75.309 13.02,-6.785 -7.28,-39.308 5.61,-56.461 -10.53,-50.68 z"
         inkscape:connector-curvature="0" />
    </clipPath>
    <clipPath
       id="clipPath5787"
       clipPathUnits="userSpaceOnUse">
      <path
         id="path5789"
         clip-rule="evenodd"
         d="m 2640.09,671.297 -1626.11,369.183 13.06,70.9 -10.23,36 8.06,52.29 -14.76,2.71 10.29,78.24 -7.15,36.31 9.81,57.99 -9.63,17.38 7.55,57.61 1621.3,-379.07 -3.39,-60.64 9.16,-19.72 -7.66,-44.476 5.29,-46.164 -6.41,-75.309 13.02,-6.785 -7.28,-39.308 5.62,-56.461 -10.54,-50.68 z"
         inkscape:connector-curvature="0" />
    </clipPath>
    <marker
       inkscape:stockid="Arrow2Lend"
       orient="auto"
       refY="0"
       refX="0"
       id="Arrow2Lend-3"
       style="overflow:visible">
      <path
         id="path4042-4"
         style="font-size:12px;fill-rule:evenodd;stroke-width:0.625;stroke-linejoin:round"
         d="M 8.7185878,4.0337352 -2.2072895,0.01601326 8.7185884,-4.0017078 c -1.7454984,2.3720609 -1.7354408,5.6174519 -6e-7,8.035443 z"
         transform="matrix(-1.1,0,0,-1.1,-1.1,0)"
         inkscape:connector-curvature="0" />
    </marker>
    <marker
       inkscape:stockid="Arrow2Lend"
       orient="auto"
       refY="0"
       refX="0"
       id="Arrow2Lend-4"
       style="overflow:visible">
      <path
         id="path4042-6"
         style="font-size:12px;fill-rule:evenodd;stroke-width:0.625;stroke-linejoin:round"
         d="M 8.7185878,4.0337352 -2.2072895,0.01601326 8.7185884,-4.0017078 c -1.7454984,2.3720609 -1.7354408,5.6174519 -6e-7,8.035443 z"
         transform="matrix(-1.1,0,0,-1.1,-1.1,0)"
         inkscape:connector-curvature="0" />
    </marker>
    <marker
       inkscape:stockid="Arrow2Lend"
       orient="auto"
       refY="0"
       refX="0"
       id="Arrow2Lend-18"
       style="overflow:visible">
      <path
         id="path4042-0"
         style="font-size:12px;fill-rule:evenodd;stroke-width:0.625;stroke-linejoin:round"
         d="M 8.7185878,4.0337352 -2.2072895,0.01601326 8.7185884,-4.0017078 c -1.7454984,2.3720609 -1.7354408,5.6174519 -6e-7,8.035443 z"
         transform="matrix(-1.1,0,0,-1.1,-1.1,0)"
         inkscape:connector-curvature="0" />
    </marker>
    <marker
       inkscape:stockid="Arrow2Lend"
       orient="auto"
       refY="0"
       refX="0"
       id="Arrow2Lend-46"
       style="overflow:visible">
      <path
         id="path4042-58"
         style="font-size:12px;fill-rule:evenodd;stroke-width:0.625;stroke-linejoin:round"
         d="M 8.7185878,4.0337352 -2.2072895,0.01601326 8.7185884,-4.0017078 c -1.7454984,2.3720609 -1.7354408,5.6174519 -6e-7,8.035443 z"
         transform="matrix(-1.1,0,0,-1.1,-1.1,0)"
         inkscape:connector-curvature="0" />
    </marker>
    <marker
       inkscape:stockid="Arrow2Lend"
       orient="auto"
       refY="0"
       refX="0"
       id="Arrow2Lend-6"
       style="overflow:visible">
      <path
         id="path4042-7"
         style="font-size:12px;fill-rule:evenodd;stroke-width:0.625;stroke-linejoin:round"
         d="M 8.7185878,4.0337352 -2.2072895,0.01601326 8.7185884,-4.0017078 c -1.7454984,2.3720609 -1.7354408,5.6174519 -6e-7,8.035443 z"
         transform="matrix(-1.1,0,0,-1.1,-1.1,0)"
         inkscape:connector-curvature="0" />
    </marker>
    <marker
       inkscape:stockid="Arrow2Lend"
       orient="auto"
       refY="0"
       refX="0"
       id="Arrow2Lend-39"
       style="overflow:visible">
      <path
         id="path4042-8"
         style="font-size:12px;fill-rule:evenodd;stroke-width:0.625;stroke-linejoin:round"
         d="M 8.7185878,4.0337352 -2.2072895,0.01601326 8.7185884,-4.0017078 c -1.7454984,2.3720609 -1.7354408,5.6174519 -6e-7,8.035443 z"
         transform="matrix(-1.1,0,0,-1.1,-1.1,0)"
         inkscape:connector-curvature="0" />
    </marker>
    <marker
       inkscape:stockid="Arrow2Lend"
       orient="auto"
       refY="0"
       refX="0"
       id="Arrow2Lend-8"
       style="overflow:visible">
      <path
         id="path4042-3"
         style="font-size:12px;fill-rule:evenodd;stroke-width:0.625;stroke-linejoin:round"
         d="M 8.7185878,4.0337352 -2.2072895,0.01601326 8.7185884,-4.0017078 c -1.7454984,2.3720609 -1.7354408,5.6174519 -6e-7,8.035443 z"
         transform="matrix(-1.1,0,0,-1.1,-1.1,0)"
         inkscape:connector-curvature="0" />
    </marker>
  </defs>
  <sodipodi:namedview
     id="base"
     pagecolor="#ffffff"
     bordercolor="#666666"
     borderopacity="1.0"
     inkscape:pageopacity="0.0"
     inkscape:pageshadow="2"
     inkscape:zoom="0.70710678"
     inkscape:cx="-45.11941"
     inkscape:cy="130.10585"
     inkscape:document-units="px"
     inkscape:current-layer="layer1"
     showgrid="false"
     fit-margin-top="50"
     fit-margin-left="0"
     fit-margin-right="50"
     fit-margin-bottom="0"
     inkscape:window-width="1600"
     inkscape:window-height="1117"
     inkscape:window-x="0"
     inkscape:window-y="30"
     inkscape:window-maximized="1" />
  <metadata
     id="metadata7">
    <rdf:RDF>
      <cc:Work
         rdf:about="">
        <dc:format>image/svg+xml</dc:format>
        <dc:type
           rdf:resource="http://purl.org/dc/dcmitype/StillImage" />
        <dc:title></dc:title>
      </cc:Work>
    </rdf:RDF>
  </metadata>
  <g
     inkscape:label="Layer 1"
     inkscape:groupmode="layer"
     id="layer1"
     transform="translate(-203.50287,-62.6227)">
    <text
       xml:space="preserve"
       style="font-size:12px;font-style:normal;font-weight:normal;line-height:125%;letter-spacing:0px;word-spacing:0px;fill:#000000;fill-opacity:1;stroke:none;font-family:Bitstream Vera Sans"
       x="63"
       y="531.36218"
       id="text5234"
       sodipodi:linespacing="125%"><tspan
         sodipodi:role="line"
         id="tspan5236"
         x="63"
         y="531.36218"
         style="font-size:20px;font-style:italic" /></text>
    <path
       style="fill:none;stroke:#000000;stroke-width:1px;stroke-linecap:butt;stroke-linejoin:miter;stroke-opacity:1;marker-end:url(#Arrow2Lend)"
       d="m 231.44866,429.08782 235.55019,0"
       id="path3004-7"
       inkscape:connector-curvature="0"
       sodipodi:nodetypes="cc" />
    <path
       id="path6399"
       style="fill:#231f20;fill-opacity:1;fill-rule:evenodd;stroke:none"
       d="m 487.14208,427.02831 c 0,-0.73545 0.78186,-3.67724 2.73652,-3.67724 0.13031,0 0.78186,0 1.43341,0.44151 -0.78186,0 -1.3031,0.88181 -1.3031,1.61725 0,0.44151 0.26279,1.17697 1.04249,1.17697 0.65154,0 1.56371,-0.44153 1.56371,-1.91241 0,-1.61725 -1.69186,-2.05877 -2.73651,-2.05877 -1.69404,0 -2.47589,1.61847 -2.99714,2.35392 -0.78185,-2.20634 -2.21528,-2.35392 -3.12527,-2.35392 -2.869,0 -4.56085,4.26511 -4.56085,4.85419 0,0.58787 0.25844,0.58787 0.25844,0.58787 0.13031,0 0.3931,-0.29394 0.3931,-0.58787 1.04031,-3.53088 2.86466,-4.11874 3.90931,-4.11874 0.51907,0 1.56155,0.14757 1.56155,2.05876 0,0.88303 -0.52124,3.23695 -1.56155,7.79598 -0.52341,2.05999 -1.43559,3.23573 -2.869,3.23573 0,0 -0.78185,0 -1.3031,-0.14643 0.65155,-0.29394 1.3031,-1.02939 1.3031,-1.91241 0,-1.02939 -0.65155,-1.17697 -1.04031,-1.17697 -0.78403,0 -1.6962,0.88303 -1.6962,1.91241 0,1.61848 1.43341,2.35393 2.73651,2.35393 1.82435,0 2.869,-2.35393 3.12745,-2.64786 0.3931,1.17696 1.43341,2.64786 3.12744,2.64786 2.86683,0 4.56086,-4.26634 4.56086,-5.29572 0,-0.14757 -0.12886,-0.14757 -0.39093,-0.14757 -0.26061,0 -0.26061,0 -0.26061,0.14757 -1.04249,3.52966 -2.86684,4.2651 -3.90932,4.2651 -1.04247,0 -1.69403,-0.88179 -1.69403,-2.05875 0,-0.73545 0.26279,-1.4709 0.65156,-2.79422 l 1.04247,-4.56026"
       inkscape:connector-curvature="0" />
    <path
       style="fill:none;stroke:#000000;stroke-width:0.99999994px;stroke-linecap:butt;stroke-linejoin:miter;stroke-opacity:1;marker-end:url(#Arrow2Lend)"
       d="m 231.93998,429.49299 0,-294.4521"
       id="path3006-7-9-9-9-2"
       inkscape:connector-curvature="0"
       sodipodi:nodetypes="cc" />
    <path
       id="path6417"
       style="fill:#231f20;fill-opacity:1;fill-rule:evenodd;stroke:none"
       d="m 240.97302,102.53732 c 0,-0.59081 0,-0.59081 0,-0.73544 0,-0.44372 -0.52342,-1.03209 -0.91435,-1.03209 -0.1303,0 -0.65155,0.29664 -1.0403,0.73545 0,0.29664 -0.13249,1.17672 -0.3931,1.91217 -0.25847,0.73544 -0.39094,1.61798 -0.39094,2.64761 l -1.43342,5.88357 c 0,0.44128 -1.3031,2.50053 -3.12743,2.50053 -1.56373,0 -1.95466,-1.32381 -1.95466,-2.50053 0,-1.47089 0.39093,-3.52769 1.43558,-6.46948 0.51908,-1.32626 0.65156,-1.62043 0.65156,-2.35587 0,-1.32136 -0.78403,-2.50054 -2.21745,-2.50054 -2.99496,0 -4.03962,4.70688 -4.03962,4.85641 0,0.58591 0.39311,0.58591 0.39311,0.58591 0.25844,0 0.51907,-0.29418 0.51907,-0.73544 0.78403,-3.08889 1.82434,-3.97142 2.86683,-3.97142 0.26061,0 0.78185,0 0.78185,0.88253 0,0.88255 -0.39093,1.61799 -0.52124,2.35343 -1.04031,3.53015 -1.69187,5.44231 -1.69187,6.76857 0,2.94179 1.82218,4.11605 3.51621,4.11605 1.3031,0 2.08496,-0.73544 2.86683,-1.76507 -0.39094,1.76507 -0.51907,3.38306 -1.82218,5.29522 -0.65154,0.88254 -1.82651,1.76507 -3.1296,1.76507 -0.39094,0 -1.69404,0 -2.34559,-1.17671 0.65155,0 0.91433,0 1.3031,-0.44127 0.39093,-0.14709 0.65155,-0.73544 0.65155,-1.3238 0,-1.02963 -0.91217,-1.17672 -1.04032,-1.17672 -0.65154,0 -1.6962,0.59081 -1.6962,2.06171 0,1.61552 1.3031,2.79225 3.12746,2.79225 2.86682,0 5.86395,-2.79225 6.64581,-6.61904 l 2.99931,-12.35306"
       inkscape:connector-curvature="0" />
    <g
       id="g4561"
       transform="matrix(0.676474,0,0,1,91.115035,-12)">
      <path
         sodipodi:nodetypes="cc"
         inkscape:connector-curvature="0"
         id="path3004-7-5"
         d="m 207.44866,381.08782 266.86739,0"
         style="fill:none;stroke:#000000;stroke-width:1.2158345px;stroke-linecap:butt;stroke-linejoin:miter;stroke-opacity:1;marker-end:none" />
      <path
         sodipodi:nodetypes="cc"
         inkscape:connector-curvature="0"
         id="path3004-7-5-5"
         d="m 207.44866,321.08782 266.86739,0"
         style="fill:none;stroke:#000000;stroke-width:1.2158345px;stroke-linecap:butt;stroke-linejoin:miter;stroke-opacity:1;marker-end:none" />
      <path
         sodipodi:nodetypes="cc"
         inkscape:connector-curvature="0"
         id="path3004-7-5-5-0"
         d="m 207.44866,261.08782 266.86739,0"
         style="fill:none;stroke:#000000;stroke-width:1.2158345px;stroke-linecap:butt;stroke-linejoin:miter;stroke-opacity:1;marker-end:none" />
      <path
         sodipodi:nodetypes="cc"
         inkscape:connector-curvature="0"
         id="path3004-7-5-5-0-2"
         d="m 207.44866,201.08782 266.86739,0"
         style="fill:none;stroke:#000000;stroke-width:1.2158345px;stroke-linecap:butt;stroke-linejoin:miter;stroke-opacity:1;marker-end:none" />
    </g>
    <g
       id="g4556"
       transform="matrix(1,0,0,0.81734499,24,68.640904)">
      <path
         sodipodi:nodetypes="cc"
         inkscape:connector-curvature="0"
         id="path3006-7-9-9-9-2-3"
         d="m 267.93998,441.49299 0,-294.4521"
         style="fill:none;stroke:#000000;stroke-width:1.10610735;stroke-linecap:butt;stroke-linejoin:miter;stroke-miterlimit:4;stroke-opacity:1;stroke-dasharray:none;marker-end:none" />
      <path
         sodipodi:nodetypes="cc"
         inkscape:connector-curvature="0"
         id="path3006-7-9-9-9-2-3-8"
         d="m 327.93998,441.49299 0,-294.4521"
         style="fill:none;stroke:#000000;stroke-width:1.10610735;stroke-linecap:butt;stroke-linejoin:miter;stroke-miterlimit:4;stroke-opacity:1;stroke-dasharray:none;marker-end:none" />
      <path
         sodipodi:nodetypes="cc"
         inkscape:connector-curvature="0"
         id="path3006-7-9-9-9-2-3-8-2"
         d="m 387.93998,441.49299 0,-294.4521"
         style="fill:none;stroke:#000000;stroke-width:1.10610735;stroke-linecap:butt;stroke-linejoin:miter;stroke-miterlimit:4;stroke-opacity:1;stroke-dasharray:none;marker-end:none" />
    </g>
    <text
       xml:space="preserve"
       style="font-size:12px;font-style:normal;font-weight:normal;line-height:125%;letter-spacing:0px;word-spacing:0px;fill:#000000;fill-opacity:1;stroke:none;font-family:Bitstream Vera Sans"
       x="252.50287"
       y="409.47208"
       id="text4567"
       sodipodi:linespacing="125%"><tspan
         sodipodi:role="line"
         id="tspan4569"
         x="252.50287"
         y="409.47208"
         style="font-size:28px">0</tspan></text>
    <text
       xml:space="preserve"
       style="font-size:12px;font-style:normal;font-weight:normal;line-height:125%;letter-spacing:0px;word-spacing:0px;fill:#000000;fill-opacity:1;stroke:none;font-family:Bitstream Vera Sans"
       x="252.50287"
       y="348.66446"
       id="text4567-8"
       sodipodi:linespacing="125%"><tspan
         sodipodi:role="line"
         id="tspan4569-6"
         x="252.50287"
         y="348.66446"
         style="font-size:28px">1</tspan></text>
    <text
       xml:space="preserve"
       style="font-size:12px;font-style:normal;font-weight:normal;line-height:125%;letter-spacing:0px;word-spacing:0px;fill:#000000;fill-opacity:1;stroke:none;font-family:Bitstream Vera Sans"
       x="252.50287"
       y="289.66446"
       id="text4567-3"
       sodipodi:linespacing="125%"><tspan
         sodipodi:role="line"
         id="tspan4569-3"
         x="252.50287"
         y="289.66446"
         style="font-size:28px">2</tspan></text>
    <text
       xml:space="preserve"
       style="font-size:12px;font-style:normal;font-weight:normal;line-height:125%;letter-spacing:0px;word-spacing:0px;fill:#000000;fill-opacity:1;stroke:none;font-family:Bitstream Vera Sans"
       x="252.50287"
       y="230.66444"
       id="text4567-2"
       sodipodi:linespacing="125%"><tspan
         sodipodi:role="line"
         id="tspan4569-7"
         x="252.50287"
         y="230.66444"
         style="font-size:28px">3</tspan></text>
    <text
       xml:space="preserve"
       style="font-size:12px;font-style:normal;font-weight:normal;line-height:125%;letter-spacing:0px;word-spacing:0px;fill:#000000;fill-opacity:1;stroke:none;font-family:Bitstream Vera Sans"
       x="312.60248"
       y="230.66444"
       id="text4567-5"
       sodipodi:linespacing="125%"><tspan
         sodipodi:role="line"
         id="tspan4569-61"
         x="312.60248"
         y="230.66444"
         style="font-size:28px">7</tspan></text>
    <text
       xml:space="preserve"
       style="font-size:12px;font-style:normal;font-weight:normal;line-height:125%;letter-spacing:0px;word-spacing:0px;fill:#000000;fill-opacity:1;stroke:none;font-family:Bitstream Vera Sans"
       x="312.60248"
       y="289.66446"
       id="text4567-9"
       sodipodi:linespacing="125%"><tspan
         sodipodi:role="line"
         id="tspan4569-8"
         x="312.60248"
         y="289.66446"
         style="font-size:28px">6</tspan></text>
    <text
       xml:space="preserve"
       style="font-size:12px;font-style:normal;font-weight:normal;line-height:125%;letter-spacing:0px;word-spacing:0px;fill:#000000;fill-opacity:1;stroke:none;font-family:Bitstream Vera Sans"
       x="312.60248"
       y="348.66446"
       id="text4567-7"
       sodipodi:linespacing="125%"><tspan
         sodipodi:role="line"
         id="tspan4569-2"
         x="312.60248"
         y="348.66446"
         style="font-size:28px">5</tspan></text>
    <text
       xml:space="preserve"
       style="font-size:12px;font-style:normal;font-weight:normal;line-height:125%;letter-spacing:0px;word-spacing:0px;fill:#000000;fill-opacity:1;stroke:none;font-family:Bitstream Vera Sans"
       x="312.60248"
       y="409.47208"
       id="text4567-4"
       sodipodi:linespacing="125%"><tspan
         sodipodi:role="line"
         id="tspan4569-60"
         x="312.60248"
         y="409.47208"
         style="font-size:28px">4</tspan></text>
    <text
       xml:space="preserve"
       style="font-size:12px;font-style:normal;font-weight:normal;line-height:125%;letter-spacing:0px;word-spacing:0px;fill:#000000;fill-opacity:1;stroke:none;font-family:Bitstream Vera Sans"
       x="370.60248"
       y="409.47208"
       id="text4567-1"
       sodipodi:linespacing="125%"><tspan
         sodipodi:role="line"
         id="tspan4569-9"
         x="370.60248"
         y="409.47208"
         style="font-size:28px">8</tspan></text>
    <text
       xml:space="preserve"
       style="font-size:12px;font-style:normal;font-weight:normal;line-height:125%;letter-spacing:0px;word-spacing:0px;fill:#000000;fill-opacity:1;stroke:none;font-family:Bitstream Vera Sans"
       x="370.69818"
       y="348.66446"
       id="text4567-19"
       sodipodi:linespacing="125%"><tspan
         sodipodi:role="line"
         id="tspan4569-67"
         x="370.69818"
         y="348.66446"
         style="font-size:28px">9</tspan></text>
    <text
       xml:space="preserve"
       style="font-size:12px;font-style:normal;font-weight:normal;line-height:125%;letter-spacing:0px;word-spacing:0px;fill:#000000;fill-opacity:1;stroke:none;font-family:Bitstream Vera Sans"
       x="361.07318"
       y="289.66446"
       id="text4567-14"
       sodipodi:linespacing="125%"><tspan
         sodipodi:role="line"
         id="tspan4569-87"
         x="361.07318"
         y="289.66446"
         style="font-size:28px">10</tspan></text>
    <text
       xml:space="preserve"
       style="font-size:12px;font-style:normal;font-weight:normal;line-height:125%;letter-spacing:0px;word-spacing:0px;fill:#000000;fill-opacity:1;stroke:none;font-family:Bitstream Vera Sans"
       x="361.43549"
       y="230.66444"
       id="text4567-0"
       sodipodi:linespacing="125%"><tspan
         sodipodi:role="line"
         id="tspan4569-1"
         x="361.43549"
         y="230.66444"
         style="font-size:28px">11</tspan></text>
  </g>
</svg>
