<?xml version="1.0" encoding="UTF-8" standalone="no"?>
<!-- Created with Inkscape (http://www.inkscape.org/) -->

<svg
   xmlns:dc="http://purl.org/dc/elements/1.1/"
   xmlns:cc="http://creativecommons.org/ns#"
   xmlns:rdf="http://www.w3.org/1999/02/22-rdf-syntax-ns#"
   xmlns:svg="http://www.w3.org/2000/svg"
   xmlns="http://www.w3.org/2000/svg"
   xmlns:sodipodi="http://sodipodi.sourceforge.net/DTD/sodipodi-0.dtd"
   xmlns:inkscape="http://www.inkscape.org/namespaces/inkscape"
   id="svg3039"
   version="1.1"
   inkscape:version="0.48.2 r9819"
   width="180"
   height="153"
   xml:space="preserve"
   sodipodi:docname="pw_inc.eps"><metadata
     id="metadata3045"><rdf:RDF><cc:Work
         rdf:about=""><dc:format>image/svg+xml</dc:format><dc:type
           rdf:resource="http://purl.org/dc/dcmitype/StillImage" /><dc:title></dc:title></cc:Work></rdf:RDF></metadata><defs
     id="defs3043"><clipPath
       clipPathUnits="userSpaceOnUse"
       id="clipPath3055"><path
         d="m 790,4950 4535.83,0 0,-1984.17 -4535.83,0 0,1984.17 z"
         id="path3057"
         inkscape:connector-curvature="0" /></clipPath><clipPath
       clipPathUnits="userSpaceOnUse"
       id="clipPath3121"><path
         d="m 2418.33,4800.83 1439.17,0 0,-1439.16 -1439.17,0 0,1439.16 z"
         id="path3123"
         inkscape:connector-curvature="0" /></clipPath><clipPath
       clipPathUnits="userSpaceOnUse"
       id="clipPath3135"><path
         d="m 790,4950 4535.83,0 0,-1984.17 -4535.83,0 0,1984.17 z"
         id="path3137"
         inkscape:connector-curvature="0" /></clipPath><marker
       inkscape:stockid="Arrow1Sstart"
       orient="auto"
       refY="0"
       refX="0"
       id="Arrow1Sstart"
       style="overflow:visible"><path
         inkscape:connector-curvature="0"
         id="path3174"
         d="M 0,0 5,-5 -12.5,0 5,5 0,0 z"
         style="fill-rule:evenodd;stroke:#000000;stroke-width:1pt;marker-start:none"
         transform="matrix(0.2,0,0,0.2,1.2,0)" /></marker><marker
       inkscape:stockid="Arrow1Send"
       orient="auto"
       refY="0"
       refX="0"
       id="Arrow1Send"
       style="overflow:visible"><path
         inkscape:connector-curvature="0"
         id="path3177-3"
         d="M 0,0 5,-5 -12.5,0 5,5 0,0 z"
         style="fill-rule:evenodd;stroke:#000000;stroke-width:1pt;marker-start:none"
         transform="matrix(-0.2,0,0,-0.2,-1.2,0)" /></marker><marker
       inkscape:stockid="Arrow1Sstart"
       orient="auto"
       refY="0"
       refX="0"
       id="marker8374"
       style="overflow:visible"><path
         inkscape:connector-curvature="0"
         id="path8376"
         d="M 0,0 5,-5 -12.5,0 5,5 0,0 z"
         style="fill-rule:evenodd;stroke:#000000;stroke-width:1pt;marker-start:none"
         transform="matrix(0.2,0,0,0.2,1.2,0)" /></marker><marker
       inkscape:stockid="Arrow1Send"
       orient="auto"
       refY="0"
       refX="0"
       id="marker8378"
       style="overflow:visible"><path
         inkscape:connector-curvature="0"
         id="path8380"
         d="M 0,0 5,-5 -12.5,0 5,5 0,0 z"
         style="fill-rule:evenodd;stroke:#000000;stroke-width:1pt;marker-start:none"
         transform="matrix(-0.2,0,0,-0.2,-1.2,0)" /></marker><marker
       inkscape:stockid="Arrow1Sstart"
       orient="auto"
       refY="0"
       refX="0"
       id="marker8382"
       style="overflow:visible"><path
         inkscape:connector-curvature="0"
         id="path8384"
         d="M 0,0 5,-5 -12.5,0 5,5 0,0 z"
         style="fill-rule:evenodd;stroke:#000000;stroke-width:1pt;marker-start:none"
         transform="matrix(0.2,0,0,0.2,1.2,0)" /></marker><marker
       inkscape:stockid="Arrow1Send"
       orient="auto"
       refY="0"
       refX="0"
       id="marker8386"
       style="overflow:visible"><path
         inkscape:connector-curvature="0"
         id="path8388"
         d="M 0,0 5,-5 -12.5,0 5,5 0,0 z"
         style="fill-rule:evenodd;stroke:#000000;stroke-width:1pt;marker-start:none"
         transform="matrix(-0.2,0,0,-0.2,-1.2,0)" /></marker><marker
       inkscape:stockid="Arrow1Mend"
       orient="auto"
       refY="0"
       refX="0"
       id="Arrow1Mend"
       style="overflow:visible"><path
         inkscape:connector-curvature="0"
         id="path3171-6"
         d="M 0,0 5,-5 -12.5,0 5,5 0,0 z"
         style="fill-rule:evenodd;stroke:#000000;stroke-width:1pt;marker-start:none"
         transform="matrix(-0.4,0,0,-0.4,-4,0)" /></marker><marker
       inkscape:stockid="Arrow1Mend"
       orient="auto"
       refY="0"
       refX="0"
       id="marker8392"
       style="overflow:visible"><path
         inkscape:connector-curvature="0"
         id="path8394"
         d="M 0,0 5,-5 -12.5,0 5,5 0,0 z"
         style="fill-rule:evenodd;stroke:#000000;stroke-width:1pt;marker-start:none"
         transform="matrix(-0.4,0,0,-0.4,-4,0)" /></marker><marker
       inkscape:stockid="Arrow1Mend"
       orient="auto"
       refY="0"
       refX="0"
       id="marker8396"
       style="overflow:visible"><path
         inkscape:connector-curvature="0"
         id="path8398"
         d="M 0,0 5,-5 -12.5,0 5,5 0,0 z"
         style="fill-rule:evenodd;stroke:#000000;stroke-width:1pt;marker-start:none"
         transform="matrix(-0.4,0,0,-0.4,-4,0)" /></marker><marker
       inkscape:stockid="Arrow1Mend"
       orient="auto"
       refY="0"
       refX="0"
       id="marker8400"
       style="overflow:visible"><path
         inkscape:connector-curvature="0"
         id="path8402"
         d="M 0,0 5,-5 -12.5,0 5,5 0,0 z"
         style="fill-rule:evenodd;stroke:#000000;stroke-width:1pt;marker-start:none"
         transform="matrix(-0.4,0,0,-0.4,-4,0)" /></marker><marker
       inkscape:stockid="Arrow1Mend"
       orient="auto"
       refY="0"
       refX="0"
       id="Arrow1Mend-0"
       style="overflow:visible"><path
         inkscape:connector-curvature="0"
         id="path3171-6-7"
         d="M 0,0 5,-5 -12.5,0 5,5 0,0 z"
         style="fill-rule:evenodd;stroke:#000000;stroke-width:1pt;marker-start:none"
         transform="matrix(-0.4,0,0,-0.4,-4,0)" /></marker><marker
       inkscape:stockid="Arrow1Mend"
       orient="auto"
       refY="0"
       refX="0"
       id="Arrow1Mend-6"
       style="overflow:visible"><path
         inkscape:connector-curvature="0"
         id="path3171-6-3"
         d="M 0,0 5,-5 -12.5,0 5,5 0,0 z"
         style="fill-rule:evenodd;stroke:#000000;stroke-width:1pt;marker-start:none"
         transform="matrix(-0.4,0,0,-0.4,-4,0)" /></marker><marker
       inkscape:stockid="Arrow1Mend"
       orient="auto"
       refY="0"
       refX="0"
       id="Arrow1Mend-7"
       style="overflow:visible"><path
         inkscape:connector-curvature="0"
         id="path3171-6-5"
         d="M 0,0 5,-5 -12.5,0 5,5 0,0 z"
         style="fill-rule:evenodd;stroke:#000000;stroke-width:1pt;marker-start:none"
         transform="matrix(-0.4,0,0,-0.4,-4,0)" /></marker><marker
       inkscape:stockid="Arrow1Mend"
       orient="auto"
       refY="0"
       refX="0"
       id="Arrow1Mend-6-8"
       style="overflow:visible"><path
         inkscape:connector-curvature="0"
         id="path3171-6-3-6"
         d="M 0,0 5,-5 -12.5,0 5,5 0,0 z"
         style="fill-rule:evenodd;stroke:#000000;stroke-width:1pt;marker-start:none"
         transform="matrix(-0.4,0,0,-0.4,-4,0)" /></marker><marker
       inkscape:stockid="Arrow1Sstart"
       orient="auto"
       refY="0"
       refX="0"
       id="Arrow1Sstart-1"
       style="overflow:visible"><path
         inkscape:connector-curvature="0"
         id="path3174-9"
         d="M 0,0 5,-5 -12.5,0 5,5 0,0 z"
         style="fill-rule:evenodd;stroke:#000000;stroke-width:1pt;marker-start:none"
         transform="matrix(0.2,0,0,0.2,1.2,0)" /></marker><marker
       inkscape:stockid="Arrow1Send"
       orient="auto"
       refY="0"
       refX="0"
       id="Arrow1Send-3"
       style="overflow:visible"><path
         inkscape:connector-curvature="0"
         id="path3177-3-8"
         d="M 0,0 5,-5 -12.5,0 5,5 0,0 z"
         style="fill-rule:evenodd;stroke:#000000;stroke-width:1pt;marker-start:none"
         transform="matrix(-0.2,0,0,-0.2,-1.2,0)" /></marker><marker
       inkscape:stockid="Arrow1Mend"
       orient="auto"
       refY="0"
       refX="0"
       id="Arrow1Mend-8"
       style="overflow:visible"><path
         inkscape:connector-curvature="0"
         id="path3171-6-9"
         d="M 0,0 5,-5 -12.5,0 5,5 0,0 z"
         style="fill-rule:evenodd;stroke:#000000;stroke-width:1pt;marker-start:none"
         transform="matrix(-0.4,0,0,-0.4,-4,0)" /></marker><marker
       inkscape:stockid="Arrow1Sstart"
       orient="auto"
       refY="0"
       refX="0"
       id="Arrow1Sstart-2"
       style="overflow:visible"><path
         inkscape:connector-curvature="0"
         id="path3174-3"
         d="M 0,0 5,-5 -12.5,0 5,5 0,0 z"
         style="fill-rule:evenodd;stroke:#000000;stroke-width:1pt;marker-start:none"
         transform="matrix(0.2,0,0,0.2,1.2,0)" /></marker><marker
       inkscape:stockid="Arrow1Send"
       orient="auto"
       refY="0"
       refX="0"
       id="Arrow1Send-6"
       style="overflow:visible"><path
         inkscape:connector-curvature="0"
         id="path3177-3-2"
         d="M 0,0 5,-5 -12.5,0 5,5 0,0 z"
         style="fill-rule:evenodd;stroke:#000000;stroke-width:1pt;marker-start:none"
         transform="matrix(-0.2,0,0,-0.2,-1.2,0)" /></marker><marker
       inkscape:stockid="Arrow1Mend"
       orient="auto"
       refY="0"
       refX="0"
       id="Arrow1Mend-81"
       style="overflow:visible"><path
         inkscape:connector-curvature="0"
         id="path3171-6-4"
         d="M 0,0 5,-5 -12.5,0 5,5 0,0 z"
         style="fill-rule:evenodd;stroke:#000000;stroke-width:1pt;marker-start:none"
         transform="matrix(-0.4,0,0,-0.4,-4,0)" /></marker><marker
       inkscape:stockid="Arrow1Mend"
       orient="auto"
       refY="0"
       refX="0"
       id="Arrow1Mend-6-2"
       style="overflow:visible"><path
         inkscape:connector-curvature="0"
         id="path3171-6-3-1"
         d="M 0,0 5,-5 -12.5,0 5,5 0,0 z"
         style="fill-rule:evenodd;stroke:#000000;stroke-width:1pt;marker-start:none"
         transform="matrix(-0.4,0,0,-0.4,-4,0)" /></marker><marker
       inkscape:stockid="Arrow1Sstart"
       orient="auto"
       refY="0"
       refX="0"
       id="marker13825"
       style="overflow:visible"><path
         inkscape:connector-curvature="0"
         id="path13827"
         d="M 0,0 5,-5 -12.5,0 5,5 0,0 z"
         style="fill-rule:evenodd;stroke:#000000;stroke-width:1pt;marker-start:none"
         transform="matrix(0.2,0,0,0.2,1.2,0)" /></marker><marker
       inkscape:stockid="Arrow1Send"
       orient="auto"
       refY="0"
       refX="0"
       id="marker13829"
       style="overflow:visible"><path
         inkscape:connector-curvature="0"
         id="path13831"
         d="M 0,0 5,-5 -12.5,0 5,5 0,0 z"
         style="fill-rule:evenodd;stroke:#000000;stroke-width:1pt;marker-start:none"
         transform="matrix(-0.2,0,0,-0.2,-1.2,0)" /></marker><marker
       inkscape:stockid="Arrow1Sstart"
       orient="auto"
       refY="0"
       refX="0"
       id="marker13833"
       style="overflow:visible"><path
         inkscape:connector-curvature="0"
         id="path13835"
         d="M 0,0 5,-5 -12.5,0 5,5 0,0 z"
         style="fill-rule:evenodd;stroke:#000000;stroke-width:1pt;marker-start:none"
         transform="matrix(0.2,0,0,0.2,1.2,0)" /></marker><marker
       inkscape:stockid="Arrow1Send"
       orient="auto"
       refY="0"
       refX="0"
       id="marker13837"
       style="overflow:visible"><path
         inkscape:connector-curvature="0"
         id="path13839"
         d="M 0,0 5,-5 -12.5,0 5,5 0,0 z"
         style="fill-rule:evenodd;stroke:#000000;stroke-width:1pt;marker-start:none"
         transform="matrix(-0.2,0,0,-0.2,-1.2,0)" /></marker><marker
       inkscape:stockid="Arrow1Sstart"
       orient="auto"
       refY="0"
       refX="0"
       id="marker13841"
       style="overflow:visible"><path
         inkscape:connector-curvature="0"
         id="path13843"
         d="M 0,0 5,-5 -12.5,0 5,5 0,0 z"
         style="fill-rule:evenodd;stroke:#000000;stroke-width:1pt;marker-start:none"
         transform="matrix(0.2,0,0,0.2,1.2,0)" /></marker><marker
       inkscape:stockid="Arrow1Send"
       orient="auto"
       refY="0"
       refX="0"
       id="marker13845"
       style="overflow:visible"><path
         inkscape:connector-curvature="0"
         id="path13847"
         d="M 0,0 5,-5 -12.5,0 5,5 0,0 z"
         style="fill-rule:evenodd;stroke:#000000;stroke-width:1pt;marker-start:none"
         transform="matrix(-0.2,0,0,-0.2,-1.2,0)" /></marker><marker
       inkscape:stockid="Arrow1Mend"
       orient="auto"
       refY="0"
       refX="0"
       id="marker13849"
       style="overflow:visible"><path
         inkscape:connector-curvature="0"
         id="path13851"
         d="M 0,0 5,-5 -12.5,0 5,5 0,0 z"
         style="fill-rule:evenodd;stroke:#000000;stroke-width:1pt;marker-start:none"
         transform="matrix(-0.4,0,0,-0.4,-4,0)" /></marker><marker
       inkscape:stockid="Arrow1Mend"
       orient="auto"
       refY="0"
       refX="0"
       id="marker13853"
       style="overflow:visible"><path
         inkscape:connector-curvature="0"
         id="path13855"
         d="M 0,0 5,-5 -12.5,0 5,5 0,0 z"
         style="fill-rule:evenodd;stroke:#000000;stroke-width:1pt;marker-start:none"
         transform="matrix(-0.4,0,0,-0.4,-4,0)" /></marker><marker
       inkscape:stockid="Arrow1Mend"
       orient="auto"
       refY="0"
       refX="0"
       id="Arrow1Mend-4"
       style="overflow:visible"><path
         inkscape:connector-curvature="0"
         id="path3171-6-2"
         d="M 0,0 5,-5 -12.5,0 5,5 0,0 z"
         style="fill-rule:evenodd;stroke:#000000;stroke-width:1pt;marker-start:none"
         transform="matrix(-0.4,0,0,-0.4,-4,0)" /></marker><marker
       inkscape:stockid="Arrow1Mend"
       orient="auto"
       refY="0"
       refX="0"
       id="Arrow1Mend-00"
       style="overflow:visible"><path
         inkscape:connector-curvature="0"
         id="path3171-6-55"
         d="M 0,0 5,-5 -12.5,0 5,5 0,0 z"
         style="fill-rule:evenodd;stroke:#000000;stroke-width:1pt;marker-start:none"
         transform="matrix(-0.4,0,0,-0.4,-4,0)" /></marker><marker
       inkscape:stockid="Arrow1Mend"
       orient="auto"
       refY="0"
       refX="0"
       id="Arrow1Mend-75"
       style="overflow:visible"><path
         inkscape:connector-curvature="0"
         id="path3171-6-44"
         d="M 0,0 5,-5 -12.5,0 5,5 0,0 z"
         style="fill-rule:evenodd;stroke:#000000;stroke-width:1pt;marker-start:none"
         transform="matrix(-0.4,0,0,-0.4,-4,0)" /></marker><marker
       inkscape:stockid="Arrow1Mend"
       orient="auto"
       refY="0"
       refX="0"
       id="Arrow1Mend-1"
       style="overflow:visible"><path
         inkscape:connector-curvature="0"
         id="path3171-6-30"
         d="M 0,0 5,-5 -12.5,0 5,5 0,0 z"
         style="fill-rule:evenodd;stroke:#000000;stroke-width:1pt;marker-start:none"
         transform="matrix(-0.4,0,0,-0.4,-4,0)" /></marker><marker
       inkscape:stockid="Arrow1Mend"
       orient="auto"
       refY="0"
       refX="0"
       id="Arrow1Mend-66"
       style="overflow:visible"><path
         inkscape:connector-curvature="0"
         id="path3171-6-70"
         d="M 0,0 5,-5 -12.5,0 5,5 0,0 z"
         style="fill-rule:evenodd;stroke:#000000;stroke-width:1pt;marker-start:none"
         transform="matrix(-0.4,0,0,-0.4,-4,0)" /></marker><marker
       inkscape:stockid="Arrow1Send"
       orient="auto"
       refY="0"
       refX="0"
       id="marker13845-8"
       style="overflow:visible"><path
         inkscape:connector-curvature="0"
         id="path13847-0"
         d="M 0,0 5,-5 -12.5,0 5,5 0,0 z"
         style="fill-rule:evenodd;stroke:#000000;stroke-width:1pt;marker-start:none"
         transform="matrix(-0.2,0,0,-0.2,-1.2,0)" /></marker></defs><sodipodi:namedview
     pagecolor="#ffffff"
     bordercolor="#666666"
     borderopacity="1"
     objecttolerance="10"
     gridtolerance="10"
     guidetolerance="10"
     inkscape:pageopacity="0"
     inkscape:pageshadow="2"
     inkscape:window-width="1600"
     inkscape:window-height="1117"
     id="namedview3041"
     showgrid="false"
     inkscape:zoom="2.8284271"
     inkscape:cx="98.47218"
     inkscape:cy="116.52617"
     inkscape:window-x="0"
     inkscape:window-y="30"
     inkscape:window-maximized="1"
     inkscape:current-layer="g3047"
     showguides="true"
     inkscape:snap-grids="false"
     inkscape:snap-to-guides="false"
     inkscape:guide-bbox="true"
     units="in"
     fit-margin-top="0.1"
     fit-margin-left="0.1"
     fit-margin-right="0"
     fit-margin-bottom="0.1"
     inkscape:snap-global="false" /><g
     id="g3047"
     inkscape:groupmode="layer"
     inkscape:label="ink_ext_XXXXXX"
     transform="matrix(1.25,0,0,-1.25,-1.4566929,188.64736)"><path
       inkscape:connector-curvature="0"
       style="fill:none;stroke:#bebebe;stroke-width:0.32000002;stroke-linecap:butt;stroke-linejoin:miter;stroke-miterlimit:4;stroke-opacity:1;stroke-dasharray:none;marker-start:none;marker-end:none;display:inline"
       d="M 100.59953,115.80768 79.113921,132.28229"
       id="path3155-2-1-2"
       sodipodi:nodetypes="cc" /><path
       inkscape:connector-curvature="0"
       style="fill:none;stroke:#bebebe;stroke-width:0.32000002;stroke-linecap:butt;stroke-linejoin:miter;stroke-miterlimit:4;stroke-opacity:1;stroke-dasharray:none;marker-start:none;marker-end:none;display:inline"
       d="m 63.639781,128.94336 15.317213,3.15255"
       id="path3155-2-1-2-5"
       sodipodi:nodetypes="cc" /><path
       inkscape:connector-curvature="0"
       style="fill:none;stroke:#000000;stroke-width:0.56;stroke-linecap:butt;stroke-linejoin:miter;stroke-miterlimit:4;stroke-opacity:1;stroke-dasharray:none;marker-end:url(#Arrow1Mend);display:inline"
       d="M 59.728943,63.899129 35.089706,39.348577"
       id="path3157-2-8"
       sodipodi:nodetypes="cc" /><g
       style="display:inline"
       id="g14006"
       transform="matrix(0.80304888,0,0,-0.80304888,-151.15268,212.96876)">







</g><path
       inkscape:connector-curvature="0"
       style="fill:none;stroke:#bebebe;stroke-width:0.31999999;stroke-linecap:butt;stroke-linejoin:miter;stroke-miterlimit:4;stroke-opacity:1;stroke-dasharray:none;marker-start:none;marker-end:none;display:inline"
       d="M 84.528116,38.50273 101.51424,56.533644"
       id="path3155-2-1"
       sodipodi:nodetypes="cc" /><path
       inkscape:connector-curvature="0"
       style="fill:none;stroke:#bebebe;stroke-width:0.31999999;stroke-linecap:butt;stroke-linejoin:miter;stroke-miterlimit:4;stroke-opacity:1;stroke-dasharray:none;stroke-dashoffset:0;marker-end:none;display:inline"
       d="M 84.518771,38.457107 42.100746,45.763279"
       id="path12930-7-9"
       sodipodi:nodetypes="cc" /><path
       inkscape:connector-curvature="0"
       style="fill:none;stroke:#000000;stroke-width:0.56;stroke-linecap:butt;stroke-linejoin:miter;stroke-miterlimit:4;stroke-opacity:1;stroke-dasharray:none;marker-start:none;marker-end:url(#Arrow1Mend);display:inline"
       d="m 59.819737,63.711466 0,34.959484"
       id="path3155-2"
       sodipodi:nodetypes="cc" /><path
       inkscape:connector-curvature="0"
       style="fill:none;stroke:#000000;stroke-width:0.40000001;stroke-linecap:butt;stroke-linejoin:miter;stroke-miterlimit:4;stroke-opacity:1;stroke-dasharray:none;stroke-dashoffset:0;marker-start:none;marker-end:none;display:inline"
       d="m 60.198264,83.723214 c 0,0 2.996891,-0.38087 4.885056,-1.347344 2.054324,-1.051531 2.97981,-2.585587 2.97981,-2.585587"
       id="path7558"
       sodipodi:nodetypes="csc" /><path
       inkscape:connector-curvature="0"
       style="fill:none;stroke:#000000;stroke-width:0.56;stroke-linecap:butt;stroke-linejoin:miter;stroke-miterlimit:4;stroke-opacity:1;stroke-dasharray:none;stroke-dashoffset:0;marker-end:url(#Arrow1Mend-6);display:inline"
       d="M 59.607767,63.837818 110.4316,55.149363"
       id="path12930"
       sodipodi:nodetypes="cc" /><path
       inkscape:connector-curvature="0"
       d="m 67.312232,89.172023 c 0,0.525945 -0.140036,1.625579 -0.950841,1.625579 -1.100439,0 -2.321813,-2.234283 -2.321813,-4.049241 0,-0.746349 0.229961,-1.625586 0.950841,-1.625586 1.119528,0 2.321813,2.274865 2.321813,4.049248 z m -2.433209,-1.084521 c 0.13686,0.506849 0.295203,1.141009 0.61189,1.70356 0.214829,0.388295 0.506845,0.833085 0.864116,0.833085 0.38829,0 0.435238,-0.506851 0.435238,-0.960395 0,-0.389088 -0.06207,-0.792502 -0.251443,-1.57625 l -1.659801,0 z m 1.588194,-0.254619 c -0.09069,-0.363627 -0.255412,-1.038369 -0.556184,-1.610467 -0.276896,-0.53709 -0.578464,-0.926178 -0.920614,-0.926178 -0.260983,0 -0.428864,0.229951 -0.428864,0.96676 0,0.332592 0.05004,0.792502 0.255413,1.569885 l 1.650249,0 z"
       style="fill:#000000;fill-opacity:1;fill-rule:evenodd;stroke:none;display:inline"
       id="path13578" /><path
       inkscape:connector-curvature="0"
       d="m 62.106048,56.499872 c 0,0.01504 0.02223,0.102604 0.02223,0.108257 0,0.0096 0,0.08119 -0.0931,0.08119 -0.0812,0 -0.08757,-0.02467 -0.121743,-0.158343 l -0.459911,-1.830864 c -1.258772,-0.04063 -2.42445,-1.094069 -2.42445,-2.172223 0,-0.752715 0.556977,-1.380516 1.522939,-1.43621 -0.06517,-0.245866 -0.120934,-0.497302 -0.183001,-0.743167 -0.09623,-0.37238 -0.17426,-0.673948 -0.17426,-0.699409 0,-0.07718 0.05569,-0.08672 0.0931,-0.08672 0.04068,0 0.05642,0.0095 0.0812,0.03103 0.01502,0.01588 0.06204,0.208466 0.08672,0.317472 0.102607,0.388296 0.198929,0.786138 0.301565,1.180798 1.277879,0.04056 2.424457,1.109189 2.424457,2.172224 0,0.627793 -0.419328,1.355047 -1.519753,1.436209 l 0.443983,1.799828 z m -1.516569,-5.230824 c -0.47503,0.02143 -1.043942,0.298377 -1.043942,1.090879 0,0.954029 0.68031,2.063216 1.861917,2.165858 l -0.817975,-3.256737 z m 1.022445,3.256737 c 0.603131,-0.03103 1.056679,-0.397842 1.056679,-1.094068 0,-0.934931 -0.683496,-2.069576 -1.870658,-2.162669 l 0.813979,3.256737 z"
       style="fill:#000000;fill-opacity:1;fill-rule:evenodd;stroke:none;display:inline"
       id="path13582" /><path
       inkscape:connector-curvature="0"
       d="m 33.003748,36.980466 c -0.304759,-0.05889 -0.419343,-0.285651 -0.419343,-0.466274 0,-0.229951 0.17983,-0.30475 0.3135,-0.30475 0.286445,0 0.485375,0.245874 0.485375,0.503674 0,0.401027 -0.457513,0.580847 -0.855357,0.580847 -0.580846,0 -0.90391,-0.571298 -0.991426,-0.75192 -0.21722,0.71214 -0.80763,0.75192 -0.97869,0.75192 -0.969949,0 -1.483157,-1.24604 -1.483157,-1.457695 0,-0.03659 0.0374,-0.08355 0.102599,-0.08355 0.07795,0 0.09623,0.05572 0.115356,0.09309 0.32305,1.056671 0.960392,1.255595 1.237289,1.255595 0.428871,0 0.512421,-0.397842 0.512421,-0.627801 0,-0.208466 -0.05569,-0.425686 -0.171082,-0.882413 l -0.323034,-1.302535 c -0.143227,-0.5721 -0.419335,-1.094069 -0.922994,-1.094069 -0.04694,0 -0.286447,0 -0.485376,0.120945 0.342149,0.06841 0.420123,0.354879 0.420123,0.466274 0,0.193346 -0.143227,0.304742 -0.323049,0.304742 -0.229949,0 -0.475826,-0.198918 -0.475826,-0.503666 0,-0.397843 0.447198,-0.580847 0.854578,-0.580847 0.456718,0 0.780562,0.363626 0.979477,0.75192 0.151981,-0.559368 0.627808,-0.75192 0.981875,-0.75192 0.969943,0 1.482372,1.24604 1.482372,1.457695 0,0.04692 -0.0374,0.08355 -0.09623,0.08355 -0.08347,0 -0.0931,-0.04612 -0.120934,-0.124127 -0.257811,-0.836267 -0.808425,-1.224561 -1.237288,-1.224561 -0.332599,0 -0.512415,0.245865 -0.512415,0.637341 0,0.208474 0.03659,0.360452 0.189366,0.988246 l 0.332598,1.292987 c 0.14322,0.572099 0.466262,0.988245 0.904689,0.988245 0.0183,0 0.282466,0 0.484582,-0.120945 z"
       style="fill:#000000;fill-opacity:1;fill-rule:evenodd;stroke:none"
       id="path8624" /><path
       inkscape:connector-curvature="0"
       d="m 114.66917,50.266629 c -0.2586,-0.360447 -0.6286,-0.683496 -1.09406,-0.683496 -0.11536,0 -0.57211,0.0183 -0.71533,0.456726 0.0311,-0.0096 0.078,-0.0096 0.0962,-0.0096 0.28645,0 0.47582,0.245877 0.47582,0.466276 0,0.218014 -0.18063,0.295202 -0.32305,0.295202 -0.15277,0 -0.48536,-0.114636 -0.48536,-0.580846 0,-0.485376 0.41058,-0.817974 0.95164,-0.817974 0.95085,0 1.91124,0.873661 2.17859,1.930333 l 0.93253,3.711084 c 0.008,0.04702 0.0279,0.1026 0.0279,0.161517 0,0.140049 -0.11535,0.23632 -0.25779,0.23632 -0.0843,0 -0.28645,-0.03739 -0.36045,-0.32305 l -0.7026,-2.797624 c -0.0502,-0.170287 -0.0502,-0.189373 -0.12491,-0.295201 -0.18938,-0.264168 -0.50288,-0.587216 -0.96039,-0.587216 -0.53391,0 -0.58086,0.521964 -0.58086,0.780562 0,0.540275 0.25781,1.27389 0.51243,1.957386 0.10585,0.276911 0.16231,0.41058 0.16231,0.599946 0,0.397843 -0.28643,0.761476 -0.75271,0.761476 -0.87287,0 -1.22456,-1.379721 -1.22456,-1.457701 0,-0.03659 0.0374,-0.08359 0.1026,-0.08359 0.0867,0 0.0962,0.03739 0.13368,0.171081 0.22995,0.798861 0.5904,1.177612 0.96039,1.177612 0.0876,0 0.24905,0 0.24905,-0.313506 0,-0.245863 -0.10585,-0.522759 -0.24905,-0.883206 -0.46626,-1.246044 -0.46626,-1.560337 -0.46626,-1.7903 0,-0.900716 0.64688,-1.112358 1.12191,-1.112358 0.2769,0 0.61903,0.08672 0.95164,0.438427 l 0.012,-0.0096 c -0.14242,-0.559377 -0.2395,-0.932544 -0.5713,-1.39882 z"
       style="fill:#000000;fill-opacity:1;fill-rule:evenodd;stroke:none"
       id="path8626" /><path
       inkscape:connector-curvature="0"
       d="m 59.593062,102.84969 c 0.406587,0.46627 0.739187,0.76148 1.215011,1.18717 0.572088,0.49731 0.820344,0.73362 0.950841,0.87605 0.668376,0.65645 1.000975,1.20945 1.000975,1.28423 0,0.0772 -0.07795,0.0772 -0.09623,0.0772 -0.0652,0 -0.08432,-0.0398 -0.133685,-0.10502 -0.236324,-0.41058 -0.466273,-0.60949 -0.712136,-0.60949 -0.198927,0 -0.303959,0.0868 -0.484567,0.31429 -0.202115,0.23871 -0.363634,0.40022 -0.637355,0.40022 -0.696221,0 -1.112359,-0.86649 -1.112359,-1.06541 0,-0.0287 0.0096,-0.0876 0.0931,-0.0876 0.07795,0 0.08672,0.0405 0.115353,0.10583 0.161519,0.37955 0.618253,0.44797 0.798067,0.44797 0.198928,0 0.392274,-0.0684 0.591201,-0.15277 0.360446,-0.15197 0.512425,-0.15197 0.608702,-0.15197 0.0652,0 0.102602,0 0.152762,0.009 -0.314293,-0.3692 -0.829894,-0.82672 -1.255584,-1.21821 l -0.960391,-0.8824 c -0.581649,-0.59041 -0.932545,-1.15294 -0.932545,-1.2182 0,-0.0564 0.04607,-0.0779 0.102603,-0.0779 0.05894,0 0.0676,0.009 0.132878,0.12412 0.152775,0.23949 0.457529,0.59039 0.808425,0.59039 0.202102,0 0.295203,-0.0653 0.485361,-0.30393 0.179826,-0.20849 0.344533,-0.41058 0.646098,-0.41058 0.932546,0 1.467237,1.20863 1.467237,1.42665 0,0.0405 -0.0096,0.0963 -0.105851,0.0963 -0.07482,0 -0.08432,-0.0375 -0.115353,-0.13369 -0.207671,-0.55935 -0.770221,-0.78932 -1.140217,-0.78932 -0.198927,0 -0.388292,0.0685 -0.590395,0.15199 -0.379548,0.15277 -0.485374,0.15277 -0.606309,0.15277 -0.09623,0 -0.202115,0 -0.285653,-0.0375 z"
       style="fill:#000000;fill-opacity:1;fill-rule:evenodd;stroke:none"
       id="path8628" /><path
       inkscape:connector-curvature="0"
       style="fill:none;stroke:#000000;stroke-width:0.56000006;stroke-linecap:butt;stroke-linejoin:miter;stroke-miterlimit:4;stroke-opacity:1;stroke-dasharray:0.55999997, 1.11999994;stroke-dashoffset:0;marker-end:none;display:inline"
       d="M 60.239271,64.349151 84.919807,112.15492"
       id="path7029-6"
       sodipodi:nodetypes="cc"
       inkscape:transform-center-x="-10.125748"
       inkscape:transform-center-y="-19.074455" /><path
       inkscape:connector-curvature="0"
       style="fill:none;stroke:#000000;stroke-width:0.56000006;stroke-linecap:butt;stroke-linejoin:miter;stroke-miterlimit:4;stroke-opacity:1;stroke-dasharray:0.55999998, 1.68000002;stroke-dashoffset:0;marker-end:none;display:inline"
       d="M 84.622116,38.700951 58.729822,64.804566"
       id="path11850-9-7"
       sodipodi:nodetypes="cc" /><path
       inkscape:connector-curvature="0"
       style="fill:none;stroke:#bebebe;stroke-width:0.31999999;stroke-linecap:butt;stroke-linejoin:miter;stroke-miterlimit:4;stroke-opacity:1;stroke-dasharray:none;marker-start:none;marker-end:none;display:inline"
       d="m 84.860084,38.860213 0,73.162817"
       id="path3155-2-1-4"
       sodipodi:nodetypes="cc" /><path
       inkscape:connector-curvature="0"
       style="fill:none;stroke:#000000;stroke-width:0.40000001;stroke-linecap:butt;stroke-linejoin:miter;stroke-miterlimit:4;stroke-opacity:1;stroke-dasharray:none;stroke-dashoffset:0;marker-start:none;marker-end:none;display:inline"
       d="m 54.269481,57.851764 c 0,0 3.123761,-0.979932 5.526786,-0.722005 2.614496,0.280638 4.427121,1.684609 4.427121,1.684609"
       id="path7558-2"
       sodipodi:nodetypes="csc" /><path
       inkscape:connector-curvature="0"
       style="fill:none;stroke:#000000;stroke-width:0.56;stroke-linecap:butt;stroke-linejoin:miter;stroke-miterlimit:4;stroke-opacity:1;stroke-dasharray:none;marker-start:none;marker-end:url(#Arrow1Mend);display:inline"
       d="M 85.057744,112.29526 58.734547,132.45943"
       id="path3155-2-15"
       sodipodi:nodetypes="cc" /><path
       inkscape:connector-curvature="0"
       style="fill:none;stroke:#000000;stroke-width:0.56;stroke-linecap:butt;stroke-linejoin:miter;stroke-miterlimit:4;stroke-opacity:1;stroke-dasharray:none;marker-start:none;marker-end:url(#Arrow1Mend);display:inline"
       d="m 84.946514,112.28231 24.862066,5.29091"
       id="path3155-2-15-2"
       sodipodi:nodetypes="cc" /><path
       inkscape:connector-curvature="0"
       style="fill:none;stroke:#bebebe;stroke-width:0.31999999;stroke-linecap:butt;stroke-linejoin:miter;stroke-miterlimit:4;stroke-opacity:1;stroke-dasharray:none;marker-start:none;marker-end:none;display:inline"
       d="m 89.188234,107.23586 0,5.68377"
       id="path3155-2-1-4-5"
       sodipodi:nodetypes="cc" /><path
       inkscape:connector-curvature="0"
       style="fill:none;stroke:#bebebe;stroke-width:0.31999999;stroke-linecap:butt;stroke-linejoin:miter;stroke-miterlimit:4;stroke-opacity:1;stroke-dasharray:none;marker-start:none;marker-end:none;display:inline"
       d="m 84.853488,106.61569 4.326976,0.75118"
       id="path3155-2-1-4-5-5"
       sodipodi:nodetypes="cc" /><path
       inkscape:connector-curvature="0"
       style="fill:none;stroke:#bebebe;stroke-width:0.31999999;stroke-linecap:butt;stroke-linejoin:miter;stroke-miterlimit:4;stroke-opacity:1;stroke-dasharray:none;marker-start:none;marker-end:none;display:inline"
       d="m 79.199897,110.73046 2.060508,4.14427"
       id="path3155-2-1-4-5-3"
       sodipodi:nodetypes="cc" /><path
       inkscape:connector-curvature="0"
       style="fill:none;stroke:#bebebe;stroke-width:0.31999999;stroke-linecap:butt;stroke-linejoin:miter;stroke-miterlimit:4;stroke-opacity:1;stroke-dasharray:none;marker-start:none;marker-end:none;display:inline"
       d="m 82.703783,108.27075 -3.463182,2.59427"
       id="path3155-2-1-4-5-3-6"
       sodipodi:nodetypes="cc" /><path
       sodipodi:type="arc"
       style="color:#000000;fill:#bebebe;fill-opacity:1;stroke:none;stroke-width:1;marker:none;visibility:visible;display:inline;overflow:visible;enable-background:accumulate"
       id="path3193"
       sodipodi:cx="127.01405"
       sodipodi:cy="52.720779"
       sodipodi:rx="13.700193"
       sodipodi:ry="14.495689"
       d="m 140.71425,52.720779 c 0,8.005749 -6.13379,14.49569 -13.7002,14.49569 -7.5664,0 -13.70019,-6.489941 -13.70019,-14.49569 0,-8.005748 6.13379,-14.495689 13.70019,-14.495689 7.56641,0 13.7002,6.489941 13.7002,14.495689 z"
       transform="matrix(-0.03740542,0,0,-0.03535265,91.85261,111.69259)" /><path
       sodipodi:type="arc"
       style="color:#000000;fill:#bebebe;fill-opacity:1;stroke:none;stroke-width:1;marker:none;visibility:visible;display:inline;overflow:visible;enable-background:accumulate"
       id="path3193-9"
       sodipodi:cx="127.01405"
       sodipodi:cy="52.720779"
       sodipodi:rx="13.700193"
       sodipodi:ry="14.495689"
       d="m 140.71425,52.720779 c 0,8.005749 -6.13379,14.49569 -13.7002,14.49569 -7.5664,0 -13.70019,-6.489941 -13.70019,-14.49569 0,-8.005748 6.13379,-14.495689 13.70019,-14.495689 7.56641,0 13.7002,6.489941 13.7002,14.495689 z"
       transform="matrix(-0.03740542,0,0,-0.03535265,86.891368,113.40671)" /><path
       inkscape:connector-curvature="0"
       style="fill:none;stroke:#bebebe;stroke-width:0.31999996;stroke-linecap:butt;stroke-linejoin:miter;stroke-miterlimit:4;stroke-opacity:1;stroke-dasharray:none;marker-start:none;marker-end:none;display:inline"
       d="m 89.246872,113.44838 -3.22686,2.41223"
       id="path3155-2-1-4-5-3-6-1"
       sodipodi:nodetypes="cc" /><g
       id="g4329"
       transform="matrix(3.5425159,0,0,1.0073769,-342.88167,-12.858916)"><path
         style="font-size:medium;font-style:normal;font-variant:normal;font-weight:normal;font-stretch:normal;text-indent:0;text-align:start;text-decoration:none;line-height:normal;letter-spacing:normal;word-spacing:normal;text-transform:none;direction:ltr;block-progression:tb;writing-mode:lr-tb;text-anchor:start;baseline-shift:baseline;color:#000000;fill:#000000;fill-opacity:1;stroke:none;stroke-width:0.56;marker:none;visibility:visible;display:inline;overflow:visible;enable-background:accumulate;font-family:Sans;-inkscape-font-specification:Sans"
         d="m 120.59375,124.4375 -1.71875,18.71875 0.53125,0.0312 1.75,-18.71875 -0.5625,-0.0312 z"
         id="path3155-2-15-2-8-2"
         inkscape:connector-curvature="0" /><path
         style="fill-rule:evenodd;stroke:#000000;stroke-width:0.21174257pt;marker-start:none"
         d="m 119.34869,140.93775 -1.01191,-1.21854 0.75361,4.0066 1.47684,-3.79996 -1.21854,1.0119 z"
         id="path4335"
         inkscape:connector-curvature="0" /></g><path
       inkscape:connector-curvature="0"
       style="fill:none;stroke:#bebebe;stroke-width:0.31999996;stroke-linecap:butt;stroke-linejoin:miter;stroke-miterlimit:4;stroke-opacity:1;stroke-dasharray:none;marker-start:none;marker-end:none;display:inline"
       d="m 81.853914,115.14942 4.284622,0.6848"
       id="path3155-2-1-4-5-3-4"
       sodipodi:nodetypes="cc" /><path
       sodipodi:type="arc"
       style="color:#000000;fill:#bebebe;fill-opacity:1;stroke:none;stroke-width:1;marker:none;visibility:visible;display:inline;overflow:visible;enable-background:accumulate"
       id="path3193-3"
       sodipodi:cx="127.01405"
       sodipodi:cy="52.720779"
       sodipodi:rx="13.700193"
       sodipodi:ry="14.495689"
       d="m 140.71425,52.720779 c 0,8.005749 -6.13379,14.49569 -13.7002,14.49569 -7.5664,0 -13.70019,-6.489941 -13.70019,-14.49569 0,-8.005748 6.13379,-14.495689 13.70019,-14.495689 7.56641,0 13.7002,6.489941 13.7002,14.495689 z"
       transform="matrix(-0.03147484,0,0.02031694,-0.02974754,88.479477,115.79245)" /><path
       inkscape:connector-curvature="0"
       style="fill:none;stroke:#000000;stroke-width:0.40000001;stroke-linecap:butt;stroke-linejoin:miter;stroke-miterlimit:4;stroke-opacity:1;stroke-dasharray:none;stroke-dashoffset:0;marker-start:none;marker-end:none;display:inline"
       d="m 84.345423,118.1656 c 0,0 3.003744,-0.39842 4.896223,-1.40945 2.059014,-1.09999 2.986624,-2.70473 2.986624,-2.70473"
       id="path7558-1"
       sodipodi:nodetypes="csc" /><path
       inkscape:connector-curvature="0"
       d="m 102.5904,137.96539 c 0,0.0133 0.039,0.14278 0.039,0.15523 0,0.078 -0.078,0.078 -0.11622,0.078 -0.0913,0 -0.0913,-0.039 -0.13032,-0.19424 l -1.63364,-6.55032 c -0.8301,0.10376 -1.12894,0.51881 -1.12894,1.11565 0,0.20753 0,0.44078 0.46735,1.67348 0.11621,0.34948 0.16851,0.4798 0.16851,0.66076 0,0.44162 -0.31129,0.79192 -0.77864,0.79192 -0.9073,0 -1.27088,-1.42694 -1.27088,-1.50497 0,-0.039 0.039,-0.0905 0.10376,-0.0905 0.0905,0 0.10377,0.039 0.14278,0.18096 0.23326,0.85666 0.62258,1.21942 0.99861,1.21942 0.0905,0 0.25982,-0.0125 0.25982,-0.32374 0,-0.039 0,-0.25982 -0.16934,-0.68816 -0.54454,-1.41366 -0.54454,-1.63363 -0.54454,-1.85444 0,-0.94715 0.79108,-1.32318 1.68593,-1.38793 -0.0772,-0.31129 -0.14195,-0.62257 -0.21998,-0.93386 -0.16851,-0.58356 -0.23325,-0.86912 -0.23325,-0.90813 0,-0.0905 0.0772,-0.0905 0.10376,-0.0905 0.0257,0 0.0648,0 0.0772,0.039 0.0523,0.039 0.45406,1.71167 0.49308,1.88101 0.36358,0 1.14138,0 2.03623,0.92058 0.32457,0.36275 0.62258,0.81682 0.79109,1.24515 0.10376,0.25899 0.33785,1.12811 0.33785,1.63447 0,0.59601 -0.29884,0.66159 -0.4026,0.66159 -0.23326,0 -0.45406,-0.23409 -0.45406,-0.42833 0,-0.11705 0.078,-0.19425 0.11704,-0.23326 0.0905,-0.0913 0.3503,-0.3503 0.3503,-0.86912 0,-0.3503 -0.19507,-1.08992 -0.8301,-1.80297 -0.8301,-0.92059 -1.59545,-0.92059 -1.89346,-0.92059 l 1.63364,6.52376 z"
       style="fill:#000000;fill-opacity:1;fill-rule:evenodd;stroke:none"
       id="path6255" /><g
       id="g13959"><path
         style="font-size:medium;font-style:normal;font-variant:normal;font-weight:normal;font-stretch:normal;text-indent:0;text-align:start;text-decoration:none;line-height:normal;letter-spacing:normal;word-spacing:normal;text-transform:none;direction:ltr;block-progression:tb;writing-mode:lr-tb;text-anchor:start;baseline-shift:baseline;color:#000000;fill:#000000;fill-opacity:1;stroke:none;stroke-width:0.40000001;marker:none;visibility:visible;display:inline;overflow:visible;enable-background:accumulate;font-family:Sans;-inkscape-font-specification:Sans"
         d="m 89.9375,117.59375 -0.25,0.3125 c 0,0 1.987665,1.64003 4.09375,3.4375 1.053042,0.89873 2.156511,1.83326 3.03125,2.625 0.874739,0.79174 1.550581,1.47576 1.75,1.75 0.04044,0.0556 0.04589,0.0602 0.0625,0.0937 -0.02316,0.001 -0.02638,0.004 -0.0625,0 -0.09029,-0.009 -0.197931,-0.0243 -0.34375,-0.0625 -0.583275,-0.15282 -1.525041,-0.52245 -2.46875,-0.875 -0.943709,-0.35255 -1.894558,-0.69416 -2.59375,-0.8125 -0.349596,-0.0592 -0.639735,-0.0713 -0.875,0.0625 -0.117633,0.0669 -0.19617,0.20276 -0.21875,0.34375 -0.02258,0.14099 -0.0013,0.27776 0.0625,0.4375 0.190266,0.47625 0.637427,1.10089 1.21875,1.8125 0.581323,0.71161 1.283449,1.48929 1.96875,2.21875 1.370602,1.45891 2.65625,2.71875 2.65625,2.71875 l 0.28125,-0.3125 c 0,0 -1.262086,-1.23677 -2.625,-2.6875 -0.681457,-0.72536 -1.397013,-1.48762 -1.96875,-2.1875 -0.571737,-0.69988 -1.005208,-1.34068 -1.15625,-1.71875 -0.04779,-0.11964 -0.06798,-0.18452 -0.0625,-0.21875 0.0055,-0.0342 2.53e-4,-0.0449 0.03125,-0.0625 0.06199,-0.0353 0.309685,-0.0534 0.625,0 0.630631,0.10673 1.591505,0.43018 2.53125,0.78125 0.939745,0.35107 1.868822,0.70963 2.5,0.875 0.157794,0.0413 0.282501,0.0812 0.40625,0.0937 0.123749,0.0126 0.228398,0.0231 0.34375,-0.0312 0.05768,-0.0272 0.123258,-0.0883 0.15625,-0.15625 0.03299,-0.068 0.04169,-0.12484 0.03125,-0.1875 -0.02089,-0.12532 -0.09404,-0.24647 -0.1875,-0.375 -0.263807,-0.36279 -0.932704,-0.98493 -1.8125,-1.78125 -0.879796,-0.79632 -1.945275,-1.75608 -3,-2.65625 -2.109449,-1.80034 -4.125,-3.4375 -4.125,-3.4375 z"
         id="path6495"
         inkscape:connector-curvature="0" /><path
         style="fill-rule:evenodd;stroke:#000000;stroke-width:0.2pt;marker-start:none"
         d="m 90.194931,118.06422 0.563042,-0.0546 -1.335123,-0.5809 0.826703,1.19856 -0.05462,-0.56304 z"
         id="path13965"
         inkscape:connector-curvature="0" /></g><path
       inkscape:connector-curvature="0"
       style="fill:none;stroke:#000000;stroke-width:0.56;stroke-linecap:butt;stroke-linejoin:miter;stroke-miterlimit:4;stroke-opacity:1;stroke-dasharray:none;marker-end:url(#Arrow1Mend-66);display:inline"
       d="m 84.813862,111.93745 c 0,0 -0.844861,-2.32727 -1.65795,-3.03904 -0.813085,-0.71176 -2.68484,0.31037 -3.367627,-1.34922 -0.667236,-1.62178 4.101918,-1.54004 3.301256,-3.35414 -0.766229,-1.73602 -4.710817,0.64723 -5.591155,-1.24062 -0.880308,-1.88785 4.023843,-1.92114 3.261202,-3.521067 -0.762635,-1.599919 -4.745202,0.584097 -5.74793,-1.367922 -1.002769,-1.952005 1.830953,-1.270712 0.991063,-2.924386 l -2.052238,-4.04087"
       id="path7031"
       sodipodi:nodetypes="czzzzzzzc" /><g
       id="g8892"
       transform="matrix(0.78630196,0,0,0.78630196,-10.645828,31.383073)"><path
         id="path8552"
         style="fill:#000000;fill-opacity:1;fill-rule:evenodd;stroke:none"
         d="m 112.33185,75.977888 -1.562,-1.609 0.187,-0.188 1.36,1.235 1.375,-1.235 0.187,0.188 -1.547,1.609 z"
         inkscape:connector-curvature="0" /><path
         id="path8554"
         style="fill:#000000;fill-opacity:1;fill-rule:evenodd;stroke:none"
         d="m 112.45685,72.450888 c 0.047,0.156 0.047,0.187 0.047,0.203 0,0.156 -0.125,0.203 -0.265,0.203 -0.047,0 -0.047,0 -0.078,0 l -1.532,-0.078 c -0.172,-0.016 -0.39,-0.016 -0.39,-0.359 0,-0.219 0.234,-0.219 0.312,-0.219 0.125,0 0.344,0 0.5,-0.016 l -1.719,-6.875 c -0.015,-0.047 -0.046,-0.234 -0.046,-0.281 0,-0.281 0.234,-0.531 0.578,-0.531 0.203,0 0.562,0.109 0.718,0.468 0.047,0.11 0.204,0.813 0.547,2.188 0.235,-0.031 1.266,-0.172 1.266,-0.891 0,-0.093 0,-0.125 -0.031,-0.25 -0.032,-0.156 -0.032,-0.172 -0.032,-0.297 0,-0.765 0.735,-1.218 1.516,-1.218 1.203,0 1.641,1.765 1.641,1.859 0,0.172 -0.188,0.172 -0.282,0.172 -0.218,0 -0.25,-0.031 -0.312,-0.25 -0.094,-0.344 -0.375,-1.359 -0.984,-1.359 -0.188,0 -0.313,0.109 -0.313,0.468 0,0.125 0.031,0.344 0.094,0.625 0.047,0.125 0.047,0.219 0.047,0.297 0,1.016 -1.203,1.203 -2.063,1.281 0.11,0.094 0.406,0.282 1.063,0.907 0.906,0.906 1.406,1.047 1.765,1.047 0.235,0 0.313,-0.125 0.313,-0.141 -0.594,-0.078 -0.828,-0.563 -0.828,-0.859 0,-0.25 0.203,-0.547 0.609,-0.547 0.219,0 0.859,0.156 0.859,1 0,0.625 -0.406,0.984 -0.906,0.984 -0.734,0 -1.39,-0.531 -2.094,-1.203 -0.125,-0.141 -0.687,-0.688 -1.14,-0.938 l 1.14,4.61 z"
         inkscape:connector-curvature="0" /><path
         id="path8556"
         style="fill:#000000;fill-opacity:1;fill-rule:evenodd;stroke:none"
         d="m 118.50385,77.825888 c 0,0.187 -0.125,0.312 -0.312,0.312 -0.203,0 -0.438,-0.203 -0.438,-0.437 0,-0.172 0.125,-0.297 0.313,-0.297 0.203,0 0.437,0.187 0.437,0.422 z m -1.172,-2.906 -0.421,-1.094 c -0.047,-0.125 -0.079,-0.219 -0.079,-0.36 0,-0.39 0.297,-0.671 0.719,-0.671 0.781,0 1.094,1.109 1.094,1.218 0,0.078 -0.063,0.094 -0.109,0.094 -0.094,0 -0.11,-0.047 -0.141,-0.125 -0.188,-0.641 -0.5,-0.969 -0.828,-0.969 -0.094,0 -0.188,0.047 -0.188,0.25 0,0.203 0.063,0.344 0.157,0.594 0.078,0.203 0.156,0.422 0.25,0.641 l 0.25,0.64 c 0.062,0.188 0.156,0.422 0.156,0.563 0,0.39 -0.313,0.672 -0.719,0.672 -0.766,0 -1.109,-1.11 -1.109,-1.219 0,-0.063 0.062,-0.094 0.125,-0.094 0.109,0 0.109,0.047 0.14,0.125 0.219,0.75 0.578,0.969 0.828,0.969 0.11,0 0.188,-0.031 0.188,-0.266 0,-0.078 -0.016,-0.187 -0.094,-0.422 l -0.219,-0.546 z"
         inkscape:connector-curvature="0" /></g><path
       inkscape:connector-curvature="0"
       d="m 114.60656,114.64557 -1.04367,0.41747 c -0.26049,0.10436 -0.86081,0.33898 -0.86081,0.93929 0,0.86081 1.05702,1.72163 1.26575,1.72163 0.0125,0 0.10436,-0.0259 0.13026,-0.0259 0.27385,-0.0784 0.53518,-0.0784 0.70467,-0.0784 0.3131,0 0.90005,0 0.90005,0.28721 0,0.20874 -0.35233,0.24798 -0.78315,0.24798 -0.19538,0 -0.46924,0 -0.83494,-0.11773 -0.23461,0.19538 -0.32562,0.50932 -0.32562,0.80905 0,0.54772 0.35234,1.33087 1.13466,1.69574 0.18286,-0.20873 0.41747,-0.20873 0.62621,-0.20873 0.24797,0 0.86081,0 0.86081,0.28722 0,0.24797 -0.48259,0.24797 -0.79569,0.24797 -0.19537,0 -0.35234,0 -0.62619,-0.0526 -0.0517,0.11772 -0.0651,0.1436 -0.0651,0.3657 0,0.16949 0.0392,0.3131 0.0392,0.33898 0,0.0651 -0.0526,0.10437 -0.091,0.10437 -0.17032,0 -0.17032,-0.36487 -0.17032,-0.44335 0,-0.14361 0.0134,-0.28722 0.0784,-0.41747 -1.19979,-0.33898 -1.72162,-1.18727 -1.72162,-1.83935 0,-0.60031 0.39075,-0.92677 0.66544,-1.07037 -1.03114,-0.56024 -1.46113,-1.57802 -1.46113,-2.11321 0,-0.86081 0.78233,-1.17391 1.14803,-1.31752 l 0.88669,-0.3657 c 0.24798,-0.091 0.66545,-0.2605 0.73057,-0.29974 0.10436,-0.0651 0.18284,-0.18284 0.18284,-0.33898 0,-0.20873 -0.16948,-0.54771 -0.5093,-0.54771 -0.15613,0 -0.48259,0.0392 -0.83493,0.29974 -0.0777,0.0651 -0.0777,0.0784 -0.13025,0.0784 -0.0392,0 -0.091,-0.0392 -0.091,-0.10437 0,-0.10436 0.50848,-0.48259 1.05619,-0.48259 0.63955,0 1.01777,0.6262 1.01777,1.04367 0,0.3131 -0.16948,0.56023 -0.48259,0.70385 l -0.60031,0.23544 z m 0.5093,5.97476 c 0.16949,0.0517 0.35234,0.0517 0.48259,0.0517 0.32562,0 0.35234,-0.0125 0.54771,-0.0651 -0.11772,-0.0517 -0.19537,-0.0784 -0.61284,-0.0784 -0.18284,0 -0.3131,0 -0.41746,0.0918 z m -0.78316,-2.72688 c 0.23461,0.0526 0.4567,0.0526 0.57442,0.0526 0.32563,0 0.35234,0 0.56108,-0.0526 -0.10436,-0.0517 -0.19621,-0.0785 -0.6262,-0.0785 -0.23544,0 -0.33982,0 -0.5093,0.0785 z"
       style="fill:#000000;fill-opacity:1;fill-rule:evenodd;stroke:none"
       id="path8648" /><path
       inkscape:connector-curvature="0"
       d="m 56.06481,136.38024 c 0.0526,0.20873 0.0784,0.32646 0.0784,0.58695 0,0.60032 -0.33898,1.04367 -1.09626,1.04367 -0.8867,0 -1.35676,-0.6262 -1.53877,-0.87417 -0.0267,0.57443 -0.43083,0.87417 -0.87417,0.87417 -0.28722,0 -0.50931,-0.13026 -0.70469,-0.50847 -0.18284,-0.3657 -0.3131,-0.96602 -0.3131,-1.00443 0,-0.0392 0.0392,-0.0918 0.10438,-0.0918 0.0784,0 0.091,0.0134 0.1436,0.23545 0.15613,0.58696 0.33898,1.17391 0.74309,1.17391 0.22209,0 0.31309,-0.15696 0.31309,-0.4567 0,-0.22209 -0.10436,-0.60031 -0.16949,-0.91342 l -0.28638,-1.06954 c -0.0392,-0.19537 -0.1436,-0.63955 -0.1962,-0.82157 -0.0652,-0.26133 -0.18286,-0.73139 -0.18286,-0.78316 0,-0.13025 0.11773,-0.24798 0.26134,-0.24798 0.11772,0 0.2605,0.0652 0.33898,0.20873 0.0259,0.0526 0.10437,0.40494 0.15696,0.60032 l 0.22127,0.90005 0.32645,1.31752 c 0.0259,0.0526 0.27386,0.54772 0.63956,0.87417 0.2605,0.23462 0.59948,0.39158 0.99106,0.39158 0.39157,0 0.53519,-0.30057 0.53519,-0.69131 0,-0.28722 -0.0392,-0.45671 -0.0918,-0.63956 l -1.16055,-4.57876 c 0,-0.0526 -0.0267,-0.10436 -0.0267,-0.17032 0,-0.14278 0.11772,-0.24714 0.27468,-0.24714 0.091,0 0.29975,0.0384 0.37823,0.33898 l 1.13467,4.55287 z"
       style="fill:#000000;fill-opacity:1;fill-rule:evenodd;stroke:none"
       id="path8650" /><g
       id="g9323"
       transform="matrix(1.3412659,0,0,1.3412659,-27.550462,-46.766885)"><text
   transform="scale(1,-1)"
   sodipodi:linespacing="125%"
   id="text9136"
   y="-135.67992"
   x="78.381416"
   style="font-size:9.60000038px;font-style:normal;font-variant:normal;font-weight:normal;font-stretch:normal;line-height:125%;letter-spacing:0px;word-spacing:0px;fill:#000000;fill-opacity:1;stroke:none;font-family:FreeSerif;-inkscape-font-specification:FreeSerif"
   xml:space="preserve"><tspan
     style="font-style:italic"
     y="-135.67992"
     x="78.381416"
     id="tspan9138"
     sodipodi:role="line">e</tspan></text>

<path
   id="path8552-3"
   style="fill:#000000;fill-opacity:1;fill-rule:evenodd;stroke:none"
   d="m 81.005014,142.31393 -1.22821,-1.26516 0.14704,-0.14782 1.06937,0.97108 1.08117,-0.97108 0.14704,0.14782 -1.21641,1.26516 z"
   inkscape:connector-curvature="0" /></g></g></svg>