<?xml version="1.0" encoding="UTF-8" standalone="no"?>
<!-- Created with Inkscape (http://www.inkscape.org/) -->

<svg
   xmlns:dc="http://purl.org/dc/elements/1.1/"
   xmlns:cc="http://creativecommons.org/ns#"
   xmlns:rdf="http://www.w3.org/1999/02/22-rdf-syntax-ns#"
   xmlns:svg="http://www.w3.org/2000/svg"
   xmlns="http://www.w3.org/2000/svg"
   xmlns:sodipodi="http://sodipodi.sourceforge.net/DTD/sodipodi-0.dtd"
   xmlns:inkscape="http://www.inkscape.org/namespaces/inkscape"
   id="svg3245"
   version="1.1"
   inkscape:version="0.48.2 r9819"
   width="355"
   height="667.5"
   xml:space="preserve"
   sodipodi:docname="sph_pattern.eps"><metadata
     id="metadata3251"><rdf:RDF><cc:Work
         rdf:about=""><dc:format>image/svg+xml</dc:format><dc:type
           rdf:resource="http://purl.org/dc/dcmitype/StillImage" /><dc:title></dc:title></cc:Work></rdf:RDF></metadata><defs
     id="defs3249"><clipPath
       clipPathUnits="userSpaceOnUse"
       id="clipPath3261"><path
         d="m 0,5340 2840,0 0,-5335.83203 -2840,0 L 0,5340 z"
         id="path3263" /></clipPath><clipPath
       clipPathUnits="userSpaceOnUse"
       id="clipPath3379"><path
         d="m 429.168,4940 2080.832,0 0,-4350 -2080.832,0 0,4350 z"
         id="path3381" /></clipPath><clipPath
       clipPathUnits="userSpaceOnUse"
       id="clipPath3395"><path
         d="m 0,5340 2840,0 0,-5335.83203 -2840,0 L 0,5340 z"
         id="path3397" /></clipPath><clipPath
       clipPathUnits="userSpaceOnUse"
       id="clipPath3435"><path
         d="m 1787.5,4890 673.33,0 0,-232.5 -673.33,0 0,232.5 z"
         id="path3437" /></clipPath><clipPath
       clipPathUnits="userSpaceOnUse"
       id="clipPath3445"><path
         d="m 0,5340 2840,0 0,-5335.83203 -2840,0 L 0,5340 z"
         id="path3447" /></clipPath><clipPath
       clipPathUnits="userSpaceOnUse"
       id="clipPath3459"><path
         d="m 1787.5,4890 673.33,0 0,-232.5 -673.33,0 0,232.5 z"
         id="path3461" /></clipPath></defs><sodipodi:namedview
     pagecolor="#ffffff"
     bordercolor="#666666"
     borderopacity="1"
     objecttolerance="10"
     gridtolerance="10"
     guidetolerance="10"
     inkscape:pageopacity="0"
     inkscape:pageshadow="2"
     inkscape:window-width="1600"
     inkscape:window-height="1117"
     id="namedview3247"
     showgrid="false"
     inkscape:zoom="1.0000132"
     inkscape:cx="411.93316"
     inkscape:cy="279.95381"
     inkscape:window-x="0"
     inkscape:window-y="30"
     inkscape:window-maximized="1"
     inkscape:current-layer="g3253" /><g
     id="g3253"
     inkscape:groupmode="layer"
     inkscape:label="ink_ext_XXXXXX"
     transform="matrix(1.25,0,0,-1.25,0,667.5)"><g
       id="g3255"
       transform="scale(0.1,0.1)"><g
         id="g3257"><g
           id="g3259"
           clip-path="url(#clipPath3261)"><path
             d="m 0,4.16797 2840,0 0,5335.83003 -2840,0 L 0,4.16797 z"
             style="fill:#ffffff;fill-opacity:1;fill-rule:nonzero;stroke:none"
             id="path3265" /><path
             d="m 429.168,590.832 2080,0 0,4349.17 -2080,0 0,-4349.17 z"
             style="fill:#ffffff;fill-opacity:1;fill-rule:evenodd;stroke:none"
             id="path3267" /><path
             d="m 429.168,590.832 0,4349.168 2080.002,0 0,-4349.168 -2080.002,0"
             style="fill:none;stroke:#ffffff;stroke-opacity:1;stroke-width:5;stroke-linecap:butt;stroke-linejoin:round;stroke-miterlimit:10;stroke-dasharray:none"
             id="path3269" /><path
             d="m 429.168,590.832 2080.002,0"
             style="fill:none;stroke:#000000;stroke-opacity:1;stroke-width:5;stroke-linecap:butt;stroke-linejoin:round;stroke-miterlimit:10;stroke-dasharray:none"
             id="path3271" /><path
             d="m 429.168,590.832 0,4349.168"
             style="fill:none;stroke:#000000;stroke-opacity:1;stroke-width:5;stroke-linecap:butt;stroke-linejoin:round;stroke-miterlimit:10;stroke-dasharray:none"
             id="path3273" /><path
             d="m 874.168,590.832 0,44.168"
             style="fill:none;stroke:#000000;stroke-opacity:1;stroke-width:5;stroke-linecap:butt;stroke-linejoin:round;stroke-miterlimit:10;stroke-dasharray:none"
             id="path3275" /><g
             id="g3277"
             transform="scale(10,10)"><text
               transform="matrix(1,0,0,-1,78.8332,47)"
               id="text3279"><tspan
                 style="fill:#000000;fill-opacity:1;fill-rule:nonzero;stroke:none;font-family:Helvetica;font-variant:normal;font-weight:normal;font-size:10;writing-mode:lr;-inkscape-font-specification:Helvetica"
                 x="0 5.84"
                 y="0"
                 sodipodi:role="line"
                 id="tspan3281">−5</tspan></text>
</g><path
             d="m 1469.17,590.832 0,44.168"
             style="fill:none;stroke:#000000;stroke-opacity:1;stroke-width:5;stroke-linecap:butt;stroke-linejoin:round;stroke-miterlimit:10;stroke-dasharray:none"
             id="path3283" /><g
             id="g3285"
             transform="scale(10,10)"><text
               transform="matrix(1,0,0,-1,144.167,47)"
               id="text3287"><tspan
                 style="fill:#000000;fill-opacity:1;fill-rule:nonzero;stroke:none;font-family:Helvetica;font-variant:normal;font-weight:normal;font-size:10;writing-mode:lr;-inkscape-font-specification:Helvetica"
                 x="0"
                 y="0"
                 id="tspan3289">0</tspan></text>
</g><path
             d="m 2064.17,590.832 0,44.168"
             style="fill:none;stroke:#000000;stroke-opacity:1;stroke-width:5;stroke-linecap:butt;stroke-linejoin:round;stroke-miterlimit:10;stroke-dasharray:none"
             id="path3291" /><g
             id="g3293"
             transform="scale(10,10)"><text
               transform="matrix(1,0,0,-1,203.667,47)"
               id="text3295"><tspan
                 style="fill:#000000;fill-opacity:1;fill-rule:nonzero;stroke:none;font-family:Helvetica;font-variant:normal;font-weight:normal;font-size:10;writing-mode:lr;-inkscape-font-specification:Helvetica"
                 x="0"
                 y="0"
                 id="tspan3297">5</tspan><tspan
                 style="fill:#000000;fill-opacity:1;fill-rule:nonzero;stroke:none;font-family:Helvetica;font-variant:normal;font-weight:normal;font-size:10;writing-mode:lr;-inkscape-font-specification:Helvetica"
                 x="17.1664 22.1664 24.9464 30.5064"
                 y="16.8332"
                 sodipodi:role="line"
                 id="tspan3299">x 10</tspan></text>
<text
               transform="matrix(1,0,0,-1,239.667,36.33321)"
               id="text3301"><tspan
                 style="fill:#000000;fill-opacity:1;fill-rule:nonzero;stroke:none;font-family:Helvetica;font-variant:normal;font-weight:normal;font-size:6.66667;writing-mode:lr;-inkscape-font-specification:Helvetica"
                 x="0 3.89333528 7.6000038"
                 y="0"
                 sodipodi:role="line"
                 id="tspan3303">−23</tspan></text>
</g><path
             d="m 429.168,644.168 43.332,0"
             style="fill:none;stroke:#000000;stroke-opacity:1;stroke-width:5;stroke-linecap:butt;stroke-linejoin:round;stroke-miterlimit:10;stroke-dasharray:none"
             id="path3305" /><g
             id="g3307"
             transform="scale(10,10)"><text
               transform="matrix(1,0,0,-1,34.5,60.75)"
               id="text3309"><tspan
                 style="fill:#000000;fill-opacity:1;fill-rule:nonzero;stroke:none;font-family:Helvetica;font-variant:normal;font-weight:normal;font-size:10;writing-mode:lr;-inkscape-font-specification:Helvetica"
                 x="0"
                 y="0"
                 id="tspan3311">0</tspan></text>
</g><path
             d="m 429.168,1238.33 43.332,0"
             style="fill:none;stroke:#000000;stroke-opacity:1;stroke-width:5;stroke-linecap:butt;stroke-linejoin:round;stroke-miterlimit:10;stroke-dasharray:none"
             id="path3313" /><g
             id="g3315"
             transform="scale(10,10)"><text
               transform="matrix(1,0,0,-1,26.1668,120.167)"
               id="text3317"><tspan
                 style="fill:#000000;fill-opacity:1;fill-rule:nonzero;stroke:none;font-family:Helvetica;font-variant:normal;font-weight:normal;font-size:10;writing-mode:lr;-inkscape-font-specification:Helvetica"
                 x="0 5.56 8.34"
                 y="0"
                 sodipodi:role="line"
                 id="tspan3319">0.5</tspan></text>
</g><path
             d="m 429.168,1833.33 43.332,0"
             style="fill:none;stroke:#000000;stroke-opacity:1;stroke-width:5;stroke-linecap:butt;stroke-linejoin:round;stroke-miterlimit:10;stroke-dasharray:none"
             id="path3321" /><g
             id="g3323"
             transform="scale(10,10)"><text
               transform="matrix(1,0,0,-1,34.5,179.667)"
               id="text3325"><tspan
                 style="fill:#000000;fill-opacity:1;fill-rule:nonzero;stroke:none;font-family:Helvetica;font-variant:normal;font-weight:normal;font-size:10;writing-mode:lr;-inkscape-font-specification:Helvetica"
                 x="0"
                 y="0"
                 id="tspan3327">1</tspan></text>
</g><path
             d="m 429.168,2428.33 43.332,0"
             style="fill:none;stroke:#000000;stroke-opacity:1;stroke-width:5;stroke-linecap:butt;stroke-linejoin:round;stroke-miterlimit:10;stroke-dasharray:none"
             id="path3329" /><g
             id="g3331"
             transform="scale(10,10)"><text
               transform="matrix(1,0,0,-1,26.1668,239.167)"
               id="text3333"><tspan
                 style="fill:#000000;fill-opacity:1;fill-rule:nonzero;stroke:none;font-family:Helvetica;font-variant:normal;font-weight:normal;font-size:10;writing-mode:lr;-inkscape-font-specification:Helvetica"
                 x="0 5.56 8.34"
                 y="0"
                 sodipodi:role="line"
                 id="tspan3335">1.5</tspan></text>
</g><path
             d="m 429.168,3023.33 43.332,0"
             style="fill:none;stroke:#000000;stroke-opacity:1;stroke-width:5;stroke-linecap:butt;stroke-linejoin:round;stroke-miterlimit:10;stroke-dasharray:none"
             id="path3337" /><g
             id="g3339"
             transform="scale(10,10)"><text
               transform="matrix(1,0,0,-1,34.5,298.667)"
               id="text3341"><tspan
                 style="fill:#000000;fill-opacity:1;fill-rule:nonzero;stroke:none;font-family:Helvetica;font-variant:normal;font-weight:normal;font-size:10;writing-mode:lr;-inkscape-font-specification:Helvetica"
                 x="0"
                 y="0"
                 id="tspan3343">2</tspan></text>
</g><path
             d="m 429.168,3617.5 43.332,0"
             style="fill:none;stroke:#000000;stroke-opacity:1;stroke-width:5;stroke-linecap:butt;stroke-linejoin:round;stroke-miterlimit:10;stroke-dasharray:none"
             id="path3345" /><g
             id="g3347"
             transform="scale(10,10)"><text
               transform="matrix(1,0,0,-1,26.1668,358.083)"
               id="text3349"><tspan
                 style="fill:#000000;fill-opacity:1;fill-rule:nonzero;stroke:none;font-family:Helvetica;font-variant:normal;font-weight:normal;font-size:10;writing-mode:lr;-inkscape-font-specification:Helvetica"
                 x="0 5.56 8.34"
                 y="0"
                 sodipodi:role="line"
                 id="tspan3351">2.5</tspan></text>
</g><path
             d="m 429.168,4212.5 43.332,0"
             style="fill:none;stroke:#000000;stroke-opacity:1;stroke-width:5;stroke-linecap:butt;stroke-linejoin:round;stroke-miterlimit:10;stroke-dasharray:none"
             id="path3353" /><g
             id="g3355"
             transform="scale(10,10)"><text
               transform="matrix(1,0,0,-1,34.5,417.584)"
               id="text3357"><tspan
                 style="fill:#000000;fill-opacity:1;fill-rule:nonzero;stroke:none;font-family:Helvetica;font-variant:normal;font-weight:normal;font-size:10;writing-mode:lr;-inkscape-font-specification:Helvetica"
                 x="0"
                 y="0"
                 id="tspan3359">3</tspan></text>
</g><path
             d="m 429.168,4807.5 43.332,0"
             style="fill:none;stroke:#000000;stroke-opacity:1;stroke-width:5;stroke-linecap:butt;stroke-linejoin:round;stroke-miterlimit:10;stroke-dasharray:none"
             id="path3361" /><g
             id="g3363"
             transform="scale(10,10)"><text
               transform="matrix(1,0,0,-1,26.1668,477.084)"
               id="text3365"><tspan
                 style="fill:#000000;fill-opacity:1;fill-rule:nonzero;stroke:none;font-family:Helvetica;font-variant:normal;font-weight:normal;font-size:10;writing-mode:lr;-inkscape-font-specification:Helvetica"
                 x="0 5.56 8.34"
                 y="0"
                 sodipodi:role="line"
                 id="tspan3367">3.5</tspan><tspan
                 style="fill:#000000;fill-opacity:1;fill-rule:nonzero;stroke:none;font-family:Helvetica;font-variant:normal;font-weight:normal;font-size:10;writing-mode:lr;-inkscape-font-specification:Helvetica"
                 x="16.75 21.75 24.53 30.09"
                 y="-21.4164"
                 sodipodi:role="line"
                 id="tspan3369">x 10</tspan></text>
<text
               transform="matrix(1,0,0,-1,61.75,504.6672)"
               id="text3371"><tspan
                 style="fill:#000000;fill-opacity:1;fill-rule:nonzero;stroke:none;font-family:Helvetica;font-variant:normal;font-weight:normal;font-size:6.66667;writing-mode:lr;-inkscape-font-specification:Helvetica"
                 x="0 3.89333528 7.6000038"
                 y="0"
                 sodipodi:role="line"
                 id="tspan3373">−22</tspan></text>
</g></g></g><g
         id="g3375"><g
           id="g3377"
           clip-path="url(#clipPath3379)"><path
             d="m 1690,797.5 25,11.668 22.5,8.332 20.83,5.832 18.34,4.168 15,1.668 13.33,-0.836 10,-1.664 8.33,-3.336 5.84,-5 3.33,-6.664 0.83,-6.668 -0.83,-8.332 -3.33,-8.336 -5,-9.164 -6.67,-10 -8.33,-9.168 -9.17,-10 -11.67,-10 -11.66,-9.168 -13.34,-9.164 -15,-9.168 -15,-8.332 -15,-8.336 -16.66,-7.5 -15.84,-6.664 -16.66,-6.668 -16.67,-5.832 -16.67,-5.836 -16.66,-4.164 -16.67,-4.168 -15.83,-3.332 -15.84,-2.5 -15,-2.5 -14.16,-1.668 -13.34,-1.668 -12.5,0 -11.66,-0.832 -18.34,0 4.17,-0.832 5.83,-0.836 6.67,-1.664 5.83,-1.668 5.84,-1.668 5,-1.664 5,-2.5 3.33,-1.668 3.33,-1.668 2.5,-1.664 2.5,-2.5 1.67,-1.668 0.83,-1.668 0,-0.832 0.84,-1.668 -0.84,-1.664 0,-0.836 -0.83,-0.832 -1.67,-1.668 -0.83,-0.832 -1.67,0 -0.83,-0.832 -1.67,-0.836 -1.66,-0.832 -1.67,0 -0.83,-0.832 -1.67,-0.836 -0.83,-0.832 -0.84,0 -1.66,-0.832 -0.84,-0.836 -0.83,-0.832 0,-0.832 -0.83,-0.836 -0.84,-0.832 -0.83,-1.668 0,-0.832 -0.83,-0.832 -0.84,-0.836 -0.83,-0.832 -0.83,-0.832 -0.84,-0.836 -0.83,-0.832 -0.83,-0.832 -0.84,-0.836 -0.83,0 -1.67,-0.832 -5,0 -1.66,0.832 -1.67,0 -0.83,0.836 -1.67,0 -1.67,0.832 -1.66,0.832 -1.67,0.836 -0.83,0.832 -1.67,0.832 -1.67,1.668 -0.83,0.832 -1.67,0.836 -0.83,0.832 -1.67,0.832 -0.83,0.836 -0.83,0.832 -0.84,0 -0.83,0.832 -0.83,0 -0.84,0.836 -5,0 -0.83,-0.836 -5.83,0 -0.84,0.836 -5.83,0 -0.83,-0.836 -0.84,0 -0.83,-0.832 -0.83,0 -0.84,-0.832 -0.83,-0.836 -1.67,-0.832 -0.83,-0.832 -1.67,-0.836 -0.83,-0.832 -1.67,-1.668 -1.66,-0.832 -0.84,-0.832 -1.66,-0.836 -1.67,-0.832 -1.67,-0.832 -1.66,0 -0.84,-0.836 -1.66,0 -1.67,-0.832 -5,0 -1.67,0.832 -0.83,0 -0.83,0.836 -0.84,0.832 -0.83,0.832 -0.83,0.836 -0.84,0.832 -0.83,0.832 -0.83,0.836 -0.84,0.832 0,0.832 -0.83,1.668 -0.83,0.832 -0.84,0.836 0,0.832 -0.83,0.832 -0.83,0.836 -1.67,0.832 -0.83,0 -0.84,0.832 -1.66,0.836 -0.84,0.832 -1.66,0 -1.67,0.832 -1.67,0.836 -0.83,0.832 -1.67,0 -0.83,0.832 -1.67,1.668 -0.83,0.832 0,0.836 -0.83,1.664 0.83,1.668 0,0.832 0.83,1.668 1.67,1.668 2.5,2.5 2.5,1.664 3.33,1.668 3.34,1.668 5,2.5 5,1.664 5.83,1.668 5.83,1.668 6.67,1.664 5.83,0.836 4.17,0.832 -18.33,0 -11.67,0.832 -12.5,0 -13.33,1.668 -14.17,1.668 -15,2.5 -15.83,2.5 -15.84,3.332 -16.66,4.168 -16.67,4.164 -16.67,5.836 -16.66,5.832 -16.67,6.668 -15.83,6.664 -16.67,7.5 -15,8.336 -15,8.332 -15,9.168 -13.33,9.164 -11.67,9.168 -11.67,10 -9.16,10 -8.34,9.168 -6.66,10 -5,9.164 -3.34,8.336 -0.83,8.332 0.83,6.668 3.34,6.664 5.83,5 8.33,3.336 10,1.664 13.34,0.836 15,-1.668 18.33,-4.168 20.83,-5.832 22.5,-8.332 25,-11.668 26.67,-13.332 28.33,-15.836 29.17,-18.332 26.67,-17.5 20.83,-14.168 5.83,-1.664 -15,15 -29.16,30.832 -38.34,40.832 -42.5,48.336 -45.83,54.164 -47.5,60.836 -49.17,65.002 -50,70.83 -50,75.83 -49.998,80.84 -49.164,85.83 -49.168,90.83 -47.5,95 -46.668,99.17 -44.164,103.33 -42.5,107.5 -40,111.67 -37.5,114.17 -35,117.5 L 545,2305 l -27.5,122.5 -24.168,125 -20,125.83 -15.832,127.5 -10.832,128.34 -6.668,127.5 -2.5,128.33 2.5,126.67 7.5,125.83 12.5,123.33 17.5,121.67 22.5,118.33 26.668,115 32.5,110.84 36.664,105.83 40.836,101.67 45.832,96.67 49.168,90 54.164,84.16 56.668,76.67 60.832,70 64.168,63.33 66.67,55 68.33,46.67 70.83,39.17 72.5,30 74.17,21.66 74.17,13.34 75,4.16"
             style="fill:none;stroke:#0000ff;stroke-opacity:1;stroke-width:5;stroke-linecap:butt;stroke-linejoin:round;stroke-miterlimit:10;stroke-dasharray:none"
             id="path3383" /><path
             d="m 1469.17,4930 75,-4.17 74.16,-13.33 74.17,-21.67 72.5,-30 70.83,-39.16 68.34,-46.67 66.66,-55 64.17,-63.33 60.83,-70 56.67,-76.67 54.17,-84.17 49.16,-90 45.84,-96.66 40.83,-101.67 36.67,-105.83 32.5,-110.84 26.66,-115 22.5,-118.33 17.5,-121.67 12.5,-123.33 7.5,-125.83 2.5,-126.67 -2.5,-128.33 -6.66,-127.5 -10.84,-128.34 -15.83,-127.5 -20,-125.83 -24.17,-125 -27.5,-122.5 -31.66,-120.83 -35,-117.5 -37.5,-114.17 -40,-111.67 -42.5,-107.5 -44.17,-103.33 -46.67,-99.17 -47.5,-95 -49.16,-90.83 -49.17,-85.83 -50,-80.84 -50,-75.83 -50,-70.83 -49.17,-65.002 -47.5,-60.836 -45.83,-54.164 -42.5,-48.336 -38.33,-40.832 -29.17,-30.832 -15,-15 5.83,1.664 20.84,14.168 26.66,17.5 29.17,18.332 28.33,15.836 26.67,13.332"
             style="fill:none;stroke:#0000ff;stroke-opacity:1;stroke-width:5;stroke-linecap:butt;stroke-linejoin:round;stroke-miterlimit:10;stroke-dasharray:none"
             id="path3385" /><path
             d="m 1732.5,814.168 21.67,6.664 18.33,4.168 15.83,2.5 14.17,0 10.83,-1.668 9.17,-3.332 6.67,-4.168 4.16,-5.832 1.67,-7.5 0,-7.5 -2.5,-8.332 -4.17,-8.336 -5.83,-10 -7.5,-9.164 -9.17,-10 -10,-9.168 -11.66,-9.168 -12.5,-9.164 -14.17,-9.168 -14.17,-9.168 -15,-7.5 -15,-8.332 -16.66,-6.668 -15.84,-6.664 -15.83,-5.836 -16.67,-5.832 -16.66,-4.168 -15.84,-5 -15.83,-3.332 -15,-3.332 -15,-2.5 -14.17,-1.668 -14.16,-1.668 -12.5,-0.832 -12.5,0 -10.84,-0.832 -17.5,0 2.5,-0.836 5,-0.832 6.67,-1.668 5.83,-1.664 5,-1.668 5.84,-1.668 4.16,-2.5 4.17,-1.664 3.33,-2.5 3.34,-1.668 2.5,-1.668 1.66,-2.5 1.67,-1.664 0.83,-1.668 0.84,-1.668 0,-1.664 0.83,-1.668 -0.83,-1.668 0,-0.832 -0.84,-1.668 -0.83,-0.832 -0.83,-0.832 -1.67,-1.668 -0.83,-0.832 -0.84,-0.836 -1.66,-0.832 -0.84,-0.832 -1.66,-0.836 -0.84,0 -1.66,-0.832 -0.84,-0.832 -1.66,-0.836 -0.84,-0.832 -1.66,-0.832 -0.84,0 -0.83,-0.836 -1.67,-0.832 -0.83,-0.832 -1.67,0 -0.83,-0.836 -1.67,-0.832 -0.83,0 -1.67,-0.832 -5,0 -1.66,-0.836 -0.84,0.836 -5,0 -0.83,0.832 -1.67,0 -1.66,0.832 -1.67,0.836 -0.83,0 -1.67,0.832 -1.67,0.832 -0.83,0.836 -1.67,0.832 -0.83,0 -0.83,0.832 -1.67,0.836 -0.83,0 -0.84,0.832 -0.83,0 -1.67,0.832 -2.5,0 -0.83,0.836 -1.67,0 -0.83,-0.836 -11.67,0 -0.83,0.836 -1.67,0 -0.83,-0.836 -2.5,0 -1.67,-0.832 -0.83,0 -0.83,-0.832 -0.84,0 -1.66,-0.836 -0.84,-0.832 -0.83,0 -1.67,-0.832 -0.83,-0.836 -1.67,-0.832 -1.66,-0.832 -0.84,0 -1.66,-0.836 -1.67,-0.832 -1.67,0 -0.83,-0.832 -5,0 -0.83,-0.836 -1.67,0.836 -5,0 -1.67,0.832 -0.83,0 -1.67,0.832 -0.83,0.836 -1.67,0 -0.83,0.832 -1.67,0.832 -0.83,0.836 -0.83,0 -1.67,0.832 -0.83,0.832 -1.67,0.836 -0.83,0.832 -1.67,0.832 -0.83,0 -1.67,0.836 -0.83,0.832 -1.67,0.832 -0.83,0.836 -0.84,0.832 -1.66,1.668 -0.84,0.832 -0.83,0.832 -0.83,1.668 0,0.832 -0.84,1.668 0.84,1.668 0,1.664 0.83,1.668 0.83,1.668 1.67,1.664 1.67,2.5 2.5,1.668 3.33,1.668 3.33,2.5 4.17,1.664 4.17,2.5 5.83,1.668 5,1.668 5.83,1.664 6.67,1.668 5,0.832 2.5,0.836 -17.5,0 -10.83,0.832 -12.5,0 -12.5,0.832 -14.17,1.668 -14.17,1.668 -15,2.5 -15,3.332 -15.83,3.332 -15.83,5 -16.67,4.168 -16.67,5.832 -15.83,5.836 -15.83,6.664 -16.67,6.668 -15,8.332 -15,7.5 -14.17,9.168 -14.16,9.168 -12.5,9.164 -11.67,9.168 -10,9.168 -9.17,10 -7.5,9.164 -5.83,10 -4.17,8.336 -2.5,8.332 0,7.5 1.67,7.5 4.17,5.832 6.66,4.168 9.17,3.332 10.83,1.668 14.17,0 15.83,-2.5 18.34,-4.168 21.66,-6.664 23.34,-9.168 25,-11.668 27.5,-13.332 28.33,-16.668 28.33,-17.5 25,-16.664 17.5,-11.668 0.84,2.5 -18.34,19.168 -31.66,32.5 -39.17,42.5 -44.17,49.164 -45.83,55.836 -47.5,60.832 -49.17,66.67 -50,70.83 -50,76.67 -49.998,81.66 -50,86.67 -49.164,90.83 -47.5,95.84 -45.836,100 -45,103.33 -42.5,108.33 -40,111.67 -36.664,115 L 565,2205 l -30.832,120.83 -27.5,122.5 -24.168,125 -19.168,126.67 -15,126.67 -10.832,128.33 -6.668,127.5 -1.664,127.5 3.332,126.67 8.332,125 12.5,123.33 18.336,120.83 22.5,117.5 27.5,114.17 32.5,110.83 37.5,105.84 41.664,100.83 45.836,95 50,90 54.164,83.33 57.5,76.67 60.836,69.17 64.164,62.5 66.668,55 69.17,45.83 70.83,39.17 73.33,30 73.34,21.66 75,12.5 75,4.17"
             style="fill:none;stroke:#ff0000;stroke-opacity:1;stroke-width:5;stroke-linecap:butt;stroke-linejoin:round;stroke-miterlimit:10;stroke-dasharray:none"
             id="path3387" /><path
             d="m 1469.17,4940 75,-4.17 75,-12.5 73.33,-21.66 73.33,-30 70.84,-39.17 69.16,-45.83 66.67,-55 64.17,-62.5 60.83,-69.17 57.5,-76.67 54.17,-83.33 50,-90 45.83,-95 41.67,-100.83 37.5,-105.84 32.5,-110.83 27.5,-114.17 22.5,-117.5 18.33,-120.83 12.5,-123.33 8.33,-125 3.34,-126.67 -1.67,-127.5 -6.67,-127.5 -10.83,-128.33 -15,-126.67 -19.17,-126.67 -24.16,-125 -27.5,-122.5 -30.84,-120.83 -34.16,-117.5 -36.67,-115 -40,-111.67 -42.5,-108.33 -45,-103.33 -45.83,-100 -47.5,-95.84 -49.17,-90.83 -50,-86.67 -50,-81.66 -50,-76.67 -50,-70.83 -49.17,-66.67 -47.5,-60.832 -45.83,-55.836 -44.17,-49.164 -39.16,-42.5 -31.67,-32.5 -18.33,-19.168 0.83,-2.5 17.5,11.668 25,16.664 28.33,17.5 28.34,16.668 27.5,13.332 25,11.668 23.33,9.168"
             style="fill:none;stroke:#ff0000;stroke-opacity:1;stroke-width:5;stroke-linecap:butt;stroke-linejoin:round;stroke-miterlimit:10;stroke-dasharray:none"
             id="path3389" /></g></g><g
         id="g3391"><g
           id="g3393"
           clip-path="url(#clipPath3395)"><g
             id="g3399"
             transform="scale(10,10)" /><path
             d="m 1787.5,4658.34 672.5,0 0,231.664 -672.5,0 0,-231.664 z"
             style="fill:#ffffff;fill-opacity:1;fill-rule:evenodd;stroke:none"
             id="path3401" /><path
             d="m 1787.5,4658.34 0,231.66 672.5,0 0,-231.66 -672.5,0"
             style="fill:none;stroke:#ffffff;stroke-opacity:1;stroke-width:5;stroke-linecap:butt;stroke-linejoin:round;stroke-miterlimit:10;stroke-dasharray:none"
             id="path3403" /><path
             d="m 1787.5,4658.34 672.5,0"
             style="fill:none;stroke:#000000;stroke-opacity:1;stroke-width:5;stroke-linecap:butt;stroke-linejoin:round;stroke-miterlimit:10;stroke-dasharray:none"
             id="path3405" /><path
             d="m 1787.5,4890 672.5,0"
             style="fill:none;stroke:#000000;stroke-opacity:1;stroke-width:5;stroke-linecap:butt;stroke-linejoin:round;stroke-miterlimit:10;stroke-dasharray:none"
             id="path3407" /><path
             d="m 1787.5,4658.34 0,231.66"
             style="fill:none;stroke:#000000;stroke-opacity:1;stroke-width:5;stroke-linecap:butt;stroke-linejoin:round;stroke-miterlimit:10;stroke-dasharray:none"
             id="path3409" /><path
             d="m 2460,4658.34 0,231.66"
             style="fill:none;stroke:#000000;stroke-opacity:1;stroke-width:5;stroke-linecap:butt;stroke-linejoin:round;stroke-miterlimit:10;stroke-dasharray:none"
             id="path3411" /><path
             d="m 1787.5,4658.34 672.5,0"
             style="fill:none;stroke:#000000;stroke-opacity:1;stroke-width:5;stroke-linecap:butt;stroke-linejoin:round;stroke-miterlimit:10;stroke-dasharray:none"
             id="path3413" /><path
             d="m 1787.5,4658.34 0,231.66"
             style="fill:none;stroke:#000000;stroke-opacity:1;stroke-width:5;stroke-linecap:butt;stroke-linejoin:round;stroke-miterlimit:10;stroke-dasharray:none"
             id="path3415" /><path
             d="m 1787.5,4658.34 672.5,0"
             style="fill:none;stroke:#000000;stroke-opacity:1;stroke-width:5;stroke-linecap:butt;stroke-linejoin:round;stroke-miterlimit:10;stroke-dasharray:none"
             id="path3417" /><path
             d="m 1787.5,4890 672.5,0"
             style="fill:none;stroke:#000000;stroke-opacity:1;stroke-width:5;stroke-linecap:butt;stroke-linejoin:round;stroke-miterlimit:10;stroke-dasharray:none"
             id="path3419" /><path
             d="m 1787.5,4658.34 0,231.66"
             style="fill:none;stroke:#000000;stroke-opacity:1;stroke-width:5;stroke-linecap:butt;stroke-linejoin:round;stroke-miterlimit:10;stroke-dasharray:none"
             id="path3421" /><path
             d="m 2460,4658.34 0,231.66"
             style="fill:none;stroke:#000000;stroke-opacity:1;stroke-width:5;stroke-linecap:butt;stroke-linejoin:round;stroke-miterlimit:10;stroke-dasharray:none"
             id="path3423" /><g
             id="g3425"
             transform="scale(10,10)"><text
               transform="matrix(1,0,0,-1,217.167,479.75)"
               id="text3427"><tspan
                 style="fill:#000000;fill-opacity:1;fill-rule:nonzero;stroke:none;font-family:Helvetica;font-variant:normal;font-weight:normal;font-size:8;writing-mode:lr;-inkscape-font-specification:Helvetica"
                 x="0 4.888 10.664 15.552"
                 y="0"
                 sodipodi:role="line"
                 id="tspan3429">FDTD</tspan></text>
</g></g></g><g
         id="g3431"><g
           id="g3433"
           clip-path="url(#clipPath3435)"><path
             d="m 1845.83,4826.67 295,0"
             style="fill:none;stroke:#0000ff;stroke-opacity:1;stroke-width:5;stroke-linecap:butt;stroke-linejoin:round;stroke-miterlimit:10;stroke-dasharray:none"
             id="path3439" /></g></g><g
         id="g3441"><g
           id="g3443"
           clip-path="url(#clipPath3445)"><g
             id="g3449"
             transform="scale(10,10)"><text
               transform="matrix(1,0,0,-1,217.167,469.334)"
               id="text3451"><tspan
                 style="fill:#000000;fill-opacity:1;fill-rule:nonzero;stroke:none;font-family:Helvetica;font-variant:normal;font-weight:normal;font-size:8;writing-mode:lr;-inkscape-font-specification:Helvetica"
                 x="0 4.888 9.336 13.784 18.232 20.896"
                 y="0"
                 sodipodi:role="line"
                 id="tspan3453">Theory</tspan></text>
</g></g></g><g
         id="g3455"><g
           id="g3457"
           clip-path="url(#clipPath3459)"><path
             d="m 1845.83,4722.5 295,0"
             style="fill:none;stroke:#ff0000;stroke-opacity:1;stroke-width:5;stroke-linecap:butt;stroke-linejoin:round;stroke-miterlimit:10;stroke-dasharray:none"
             id="path3463" /></g></g></g></g></svg>