<?xml version="1.0" encoding="UTF-8" standalone="no"?>
<!-- Created with Inkscape (http://www.inkscape.org/) -->

<svg
   xmlns:dc="http://purl.org/dc/elements/1.1/"
   xmlns:cc="http://creativecommons.org/ns#"
   xmlns:rdf="http://www.w3.org/1999/02/22-rdf-syntax-ns#"
   xmlns:svg="http://www.w3.org/2000/svg"
   xmlns="http://www.w3.org/2000/svg"
   xmlns:sodipodi="http://sodipodi.sourceforge.net/DTD/sodipodi-0.dtd"
   xmlns:inkscape="http://www.inkscape.org/namespaces/inkscape"
   id="svg3039"
   version="1.1"
   inkscape:version="0.48.2 r9819"
   width="180"
   height="102.6"
   xml:space="preserve"
   sodipodi:docname="sph_coord.svg"><metadata
     id="metadata3045"><rdf:RDF><cc:Work
         rdf:about=""><dc:format>image/svg+xml</dc:format><dc:type
           rdf:resource="http://purl.org/dc/dcmitype/StillImage" /><dc:title></dc:title></cc:Work></rdf:RDF></metadata><defs
     id="defs3043"><clipPath
       clipPathUnits="userSpaceOnUse"
       id="clipPath3055"><path
         d="m 790,4950 4535.83,0 0,-1984.17 -4535.83,0 0,1984.17 z"
         id="path3057"
         inkscape:connector-curvature="0" /></clipPath><clipPath
       clipPathUnits="userSpaceOnUse"
       id="clipPath3121"><path
         d="m 2418.33,4800.83 1439.17,0 0,-1439.16 -1439.17,0 0,1439.16 z"
         id="path3123"
         inkscape:connector-curvature="0" /></clipPath><clipPath
       clipPathUnits="userSpaceOnUse"
       id="clipPath3135"><path
         d="m 790,4950 4535.83,0 0,-1984.17 -4535.83,0 0,1984.17 z"
         id="path3137"
         inkscape:connector-curvature="0" /></clipPath><marker
       inkscape:stockid="Arrow1Sstart"
       orient="auto"
       refY="0"
       refX="0"
       id="Arrow1Sstart"
       style="overflow:visible"><path
         inkscape:connector-curvature="0"
         id="path3174"
         d="M 0,0 5,-5 -12.5,0 5,5 0,0 z"
         style="fill-rule:evenodd;stroke:#000000;stroke-width:1pt;marker-start:none"
         transform="matrix(0.2,0,0,0.2,1.2,0)" /></marker><marker
       inkscape:stockid="Arrow1Send"
       orient="auto"
       refY="0"
       refX="0"
       id="Arrow1Send"
       style="overflow:visible"><path
         inkscape:connector-curvature="0"
         id="path3177-3"
         d="M 0,0 5,-5 -12.5,0 5,5 0,0 z"
         style="fill-rule:evenodd;stroke:#000000;stroke-width:1pt;marker-start:none"
         transform="matrix(-0.2,0,0,-0.2,-1.2,0)" /></marker><marker
       inkscape:stockid="Arrow1Sstart"
       orient="auto"
       refY="0"
       refX="0"
       id="marker8374"
       style="overflow:visible"><path
         inkscape:connector-curvature="0"
         id="path8376"
         d="M 0,0 5,-5 -12.5,0 5,5 0,0 z"
         style="fill-rule:evenodd;stroke:#000000;stroke-width:1pt;marker-start:none"
         transform="matrix(0.2,0,0,0.2,1.2,0)" /></marker><marker
       inkscape:stockid="Arrow1Send"
       orient="auto"
       refY="0"
       refX="0"
       id="marker8378"
       style="overflow:visible"><path
         inkscape:connector-curvature="0"
         id="path8380"
         d="M 0,0 5,-5 -12.5,0 5,5 0,0 z"
         style="fill-rule:evenodd;stroke:#000000;stroke-width:1pt;marker-start:none"
         transform="matrix(-0.2,0,0,-0.2,-1.2,0)" /></marker><marker
       inkscape:stockid="Arrow1Sstart"
       orient="auto"
       refY="0"
       refX="0"
       id="marker8382"
       style="overflow:visible"><path
         inkscape:connector-curvature="0"
         id="path8384"
         d="M 0,0 5,-5 -12.5,0 5,5 0,0 z"
         style="fill-rule:evenodd;stroke:#000000;stroke-width:1pt;marker-start:none"
         transform="matrix(0.2,0,0,0.2,1.2,0)" /></marker><marker
       inkscape:stockid="Arrow1Send"
       orient="auto"
       refY="0"
       refX="0"
       id="marker8386"
       style="overflow:visible"><path
         inkscape:connector-curvature="0"
         id="path8388"
         d="M 0,0 5,-5 -12.5,0 5,5 0,0 z"
         style="fill-rule:evenodd;stroke:#000000;stroke-width:1pt;marker-start:none"
         transform="matrix(-0.2,0,0,-0.2,-1.2,0)" /></marker><marker
       inkscape:stockid="Arrow1Mend"
       orient="auto"
       refY="0"
       refX="0"
       id="Arrow1Mend"
       style="overflow:visible"><path
         inkscape:connector-curvature="0"
         id="path3171-6"
         d="M 0,0 5,-5 -12.5,0 5,5 0,0 z"
         style="fill-rule:evenodd;stroke:#000000;stroke-width:1pt;marker-start:none"
         transform="matrix(-0.4,0,0,-0.4,-4,0)" /></marker><marker
       inkscape:stockid="Arrow1Mend"
       orient="auto"
       refY="0"
       refX="0"
       id="marker8392"
       style="overflow:visible"><path
         inkscape:connector-curvature="0"
         id="path8394"
         d="M 0,0 5,-5 -12.5,0 5,5 0,0 z"
         style="fill-rule:evenodd;stroke:#000000;stroke-width:1pt;marker-start:none"
         transform="matrix(-0.4,0,0,-0.4,-4,0)" /></marker><marker
       inkscape:stockid="Arrow1Mend"
       orient="auto"
       refY="0"
       refX="0"
       id="marker8396"
       style="overflow:visible"><path
         inkscape:connector-curvature="0"
         id="path8398"
         d="M 0,0 5,-5 -12.5,0 5,5 0,0 z"
         style="fill-rule:evenodd;stroke:#000000;stroke-width:1pt;marker-start:none"
         transform="matrix(-0.4,0,0,-0.4,-4,0)" /></marker><marker
       inkscape:stockid="Arrow1Mend"
       orient="auto"
       refY="0"
       refX="0"
       id="marker8400"
       style="overflow:visible"><path
         inkscape:connector-curvature="0"
         id="path8402"
         d="M 0,0 5,-5 -12.5,0 5,5 0,0 z"
         style="fill-rule:evenodd;stroke:#000000;stroke-width:1pt;marker-start:none"
         transform="matrix(-0.4,0,0,-0.4,-4,0)" /></marker><marker
       inkscape:stockid="Arrow1Mend"
       orient="auto"
       refY="0"
       refX="0"
       id="Arrow1Mend-0"
       style="overflow:visible"><path
         inkscape:connector-curvature="0"
         id="path3171-6-7"
         d="M 0,0 5,-5 -12.5,0 5,5 0,0 z"
         style="fill-rule:evenodd;stroke:#000000;stroke-width:1pt;marker-start:none"
         transform="matrix(-0.4,0,0,-0.4,-4,0)" /></marker><marker
       inkscape:stockid="Arrow1Mend"
       orient="auto"
       refY="0"
       refX="0"
       id="Arrow1Mend-6"
       style="overflow:visible"><path
         inkscape:connector-curvature="0"
         id="path3171-6-3"
         d="M 0,0 5,-5 -12.5,0 5,5 0,0 z"
         style="fill-rule:evenodd;stroke:#000000;stroke-width:1pt;marker-start:none"
         transform="matrix(-0.4,0,0,-0.4,-4,0)" /></marker><marker
       inkscape:stockid="Arrow1Mend"
       orient="auto"
       refY="0"
       refX="0"
       id="Arrow1Mend-7"
       style="overflow:visible"><path
         inkscape:connector-curvature="0"
         id="path3171-6-5"
         d="M 0,0 5,-5 -12.5,0 5,5 0,0 z"
         style="fill-rule:evenodd;stroke:#000000;stroke-width:1pt;marker-start:none"
         transform="matrix(-0.4,0,0,-0.4,-4,0)" /></marker><marker
       inkscape:stockid="Arrow1Mend"
       orient="auto"
       refY="0"
       refX="0"
       id="Arrow1Mend-6-8"
       style="overflow:visible"><path
         inkscape:connector-curvature="0"
         id="path3171-6-3-6"
         d="M 0,0 5,-5 -12.5,0 5,5 0,0 z"
         style="fill-rule:evenodd;stroke:#000000;stroke-width:1pt;marker-start:none"
         transform="matrix(-0.4,0,0,-0.4,-4,0)" /></marker><marker
       inkscape:stockid="Arrow1Sstart"
       orient="auto"
       refY="0"
       refX="0"
       id="Arrow1Sstart-1"
       style="overflow:visible"><path
         inkscape:connector-curvature="0"
         id="path3174-9"
         d="M 0,0 5,-5 -12.5,0 5,5 0,0 z"
         style="fill-rule:evenodd;stroke:#000000;stroke-width:1pt;marker-start:none"
         transform="matrix(0.2,0,0,0.2,1.2,0)" /></marker><marker
       inkscape:stockid="Arrow1Send"
       orient="auto"
       refY="0"
       refX="0"
       id="Arrow1Send-3"
       style="overflow:visible"><path
         inkscape:connector-curvature="0"
         id="path3177-3-8"
         d="M 0,0 5,-5 -12.5,0 5,5 0,0 z"
         style="fill-rule:evenodd;stroke:#000000;stroke-width:1pt;marker-start:none"
         transform="matrix(-0.2,0,0,-0.2,-1.2,0)" /></marker><marker
       inkscape:stockid="Arrow1Mend"
       orient="auto"
       refY="0"
       refX="0"
       id="Arrow1Mend-8"
       style="overflow:visible"><path
         inkscape:connector-curvature="0"
         id="path3171-6-9"
         d="M 0,0 5,-5 -12.5,0 5,5 0,0 z"
         style="fill-rule:evenodd;stroke:#000000;stroke-width:1pt;marker-start:none"
         transform="matrix(-0.4,0,0,-0.4,-4,0)" /></marker><marker
       inkscape:stockid="Arrow1Sstart"
       orient="auto"
       refY="0"
       refX="0"
       id="Arrow1Sstart-2"
       style="overflow:visible"><path
         inkscape:connector-curvature="0"
         id="path3174-3"
         d="M 0,0 5,-5 -12.5,0 5,5 0,0 z"
         style="fill-rule:evenodd;stroke:#000000;stroke-width:1pt;marker-start:none"
         transform="matrix(0.2,0,0,0.2,1.2,0)" /></marker><marker
       inkscape:stockid="Arrow1Send"
       orient="auto"
       refY="0"
       refX="0"
       id="Arrow1Send-6"
       style="overflow:visible"><path
         inkscape:connector-curvature="0"
         id="path3177-3-2"
         d="M 0,0 5,-5 -12.5,0 5,5 0,0 z"
         style="fill-rule:evenodd;stroke:#000000;stroke-width:1pt;marker-start:none"
         transform="matrix(-0.2,0,0,-0.2,-1.2,0)" /></marker><marker
       inkscape:stockid="Arrow1Mend"
       orient="auto"
       refY="0"
       refX="0"
       id="Arrow1Mend-81"
       style="overflow:visible"><path
         inkscape:connector-curvature="0"
         id="path3171-6-4"
         d="M 0,0 5,-5 -12.5,0 5,5 0,0 z"
         style="fill-rule:evenodd;stroke:#000000;stroke-width:1pt;marker-start:none"
         transform="matrix(-0.4,0,0,-0.4,-4,0)" /></marker><marker
       inkscape:stockid="Arrow1Mend"
       orient="auto"
       refY="0"
       refX="0"
       id="Arrow1Mend-6-2"
       style="overflow:visible"><path
         inkscape:connector-curvature="0"
         id="path3171-6-3-1"
         d="M 0,0 5,-5 -12.5,0 5,5 0,0 z"
         style="fill-rule:evenodd;stroke:#000000;stroke-width:1pt;marker-start:none"
         transform="matrix(-0.4,0,0,-0.4,-4,0)" /></marker><marker
       inkscape:stockid="Arrow1Sstart"
       orient="auto"
       refY="0"
       refX="0"
       id="marker13825"
       style="overflow:visible"><path
         inkscape:connector-curvature="0"
         id="path13827"
         d="M 0,0 5,-5 -12.5,0 5,5 0,0 z"
         style="fill-rule:evenodd;stroke:#000000;stroke-width:1pt;marker-start:none"
         transform="matrix(0.2,0,0,0.2,1.2,0)" /></marker><marker
       inkscape:stockid="Arrow1Send"
       orient="auto"
       refY="0"
       refX="0"
       id="marker13829"
       style="overflow:visible"><path
         inkscape:connector-curvature="0"
         id="path13831"
         d="M 0,0 5,-5 -12.5,0 5,5 0,0 z"
         style="fill-rule:evenodd;stroke:#000000;stroke-width:1pt;marker-start:none"
         transform="matrix(-0.2,0,0,-0.2,-1.2,0)" /></marker><marker
       inkscape:stockid="Arrow1Sstart"
       orient="auto"
       refY="0"
       refX="0"
       id="marker13833"
       style="overflow:visible"><path
         inkscape:connector-curvature="0"
         id="path13835"
         d="M 0,0 5,-5 -12.5,0 5,5 0,0 z"
         style="fill-rule:evenodd;stroke:#000000;stroke-width:1pt;marker-start:none"
         transform="matrix(0.2,0,0,0.2,1.2,0)" /></marker><marker
       inkscape:stockid="Arrow1Send"
       orient="auto"
       refY="0"
       refX="0"
       id="marker13837"
       style="overflow:visible"><path
         inkscape:connector-curvature="0"
         id="path13839"
         d="M 0,0 5,-5 -12.5,0 5,5 0,0 z"
         style="fill-rule:evenodd;stroke:#000000;stroke-width:1pt;marker-start:none"
         transform="matrix(-0.2,0,0,-0.2,-1.2,0)" /></marker><marker
       inkscape:stockid="Arrow1Sstart"
       orient="auto"
       refY="0"
       refX="0"
       id="marker13841"
       style="overflow:visible"><path
         inkscape:connector-curvature="0"
         id="path13843"
         d="M 0,0 5,-5 -12.5,0 5,5 0,0 z"
         style="fill-rule:evenodd;stroke:#000000;stroke-width:1pt;marker-start:none"
         transform="matrix(0.2,0,0,0.2,1.2,0)" /></marker><marker
       inkscape:stockid="Arrow1Send"
       orient="auto"
       refY="0"
       refX="0"
       id="marker13845"
       style="overflow:visible"><path
         inkscape:connector-curvature="0"
         id="path13847"
         d="M 0,0 5,-5 -12.5,0 5,5 0,0 z"
         style="fill-rule:evenodd;stroke:#000000;stroke-width:1pt;marker-start:none"
         transform="matrix(-0.2,0,0,-0.2,-1.2,0)" /></marker><marker
       inkscape:stockid="Arrow1Mend"
       orient="auto"
       refY="0"
       refX="0"
       id="marker13849"
       style="overflow:visible"><path
         inkscape:connector-curvature="0"
         id="path13851"
         d="M 0,0 5,-5 -12.5,0 5,5 0,0 z"
         style="fill-rule:evenodd;stroke:#000000;stroke-width:1pt;marker-start:none"
         transform="matrix(-0.4,0,0,-0.4,-4,0)" /></marker><marker
       inkscape:stockid="Arrow1Mend"
       orient="auto"
       refY="0"
       refX="0"
       id="marker13853"
       style="overflow:visible"><path
         inkscape:connector-curvature="0"
         id="path13855"
         d="M 0,0 5,-5 -12.5,0 5,5 0,0 z"
         style="fill-rule:evenodd;stroke:#000000;stroke-width:1pt;marker-start:none"
         transform="matrix(-0.4,0,0,-0.4,-4,0)" /></marker><marker
       inkscape:stockid="Arrow1Mend"
       orient="auto"
       refY="0"
       refX="0"
       id="Arrow1Mend-4"
       style="overflow:visible"><path
         inkscape:connector-curvature="0"
         id="path3171-6-2"
         d="M 0,0 5,-5 -12.5,0 5,5 0,0 z"
         style="fill-rule:evenodd;stroke:#000000;stroke-width:1pt;marker-start:none"
         transform="matrix(-0.4,0,0,-0.4,-4,0)" /></marker><marker
       inkscape:stockid="Arrow1Mend"
       orient="auto"
       refY="0"
       refX="0"
       id="Arrow1Mend-00"
       style="overflow:visible"><path
         inkscape:connector-curvature="0"
         id="path3171-6-55"
         d="M 0,0 5,-5 -12.5,0 5,5 0,0 z"
         style="fill-rule:evenodd;stroke:#000000;stroke-width:1pt;marker-start:none"
         transform="matrix(-0.4,0,0,-0.4,-4,0)" /></marker></defs><sodipodi:namedview
     pagecolor="#ffffff"
     bordercolor="#666666"
     borderopacity="1"
     objecttolerance="10"
     gridtolerance="10"
     guidetolerance="10"
     inkscape:pageopacity="0"
     inkscape:pageshadow="2"
     inkscape:window-width="1600"
     inkscape:window-height="1117"
     id="namedview3041"
     showgrid="false"
     inkscape:zoom="1.5942043"
     inkscape:cx="46.724365"
     inkscape:cy="61.996746"
     inkscape:window-x="0"
     inkscape:window-y="30"
     inkscape:window-maximized="1"
     inkscape:current-layer="g3047"
     showguides="true"
     inkscape:snap-grids="false"
     inkscape:snap-to-guides="false"
     inkscape:guide-bbox="true"
     units="in"
     fit-margin-top="0.1"
     fit-margin-left="0.1"
     fit-margin-right="0"
     fit-margin-bottom="0.1"
     inkscape:snap-global="false"><sodipodi:guide
       orientation="1,0"
       position="180.65439,-58.963585"
       id="guide7584" /><sodipodi:guide
       orientation="0,1"
       position="322.90324,102.75591"
       id="guide7586" /><sodipodi:guide
       orientation="0,1"
       position="344.51106,0"
       id="guide7588" /><sodipodi:guide
       orientation="1,0"
       position="0,717.49826"
       id="guide8358" /></sodipodi:namedview><g
     id="g3047"
     inkscape:groupmode="layer"
     inkscape:label="ink_ext_XXXXXX"
     transform="matrix(1.25,0,0,-1.25,-1.4566929,138.24736)"><path
       inkscape:connector-curvature="0"
       style="fill:none;stroke:#000000;stroke-width:0.56;stroke-linecap:butt;stroke-linejoin:miter;stroke-miterlimit:4;stroke-opacity:1;stroke-dasharray:none;marker-end:url(#Arrow1Mend);display:inline"
       d="M 69.328945,59.09913 46.930237,36.781221"
       id="path3157-2-8"
       sodipodi:nodetypes="cc" /><g
       style="display:inline"
       id="g14006"
       transform="matrix(0.80304888,0,0,-0.80304888,-151.15268,212.96876)">







</g><path
       inkscape:connector-curvature="0"
       style="fill:none;stroke:#bebebe;stroke-width:0.31999999;stroke-linecap:butt;stroke-linejoin:miter;stroke-miterlimit:4;stroke-opacity:1;stroke-dasharray:none;marker-start:none;marker-end:none;display:inline"
       d="M 87.253112,40.954749 99.38845,53.842031"
       id="path3155-2-1"
       sodipodi:nodetypes="cc" /><path
       inkscape:connector-curvature="0"
       style="fill:none;stroke:#bebebe;stroke-width:0.31999999;stroke-linecap:butt;stroke-linejoin:miter;stroke-miterlimit:4;stroke-opacity:1;stroke-dasharray:none;stroke-dashoffset:0;marker-end:none;display:inline"
       d="M 87.344235,40.933463 56.593471,46.157729"
       id="path12930-7-9"
       sodipodi:nodetypes="cc" /><path
       inkscape:connector-curvature="0"
       style="fill:none;stroke:#000000;stroke-width:0.56;stroke-linecap:butt;stroke-linejoin:miter;stroke-miterlimit:4;stroke-opacity:1;stroke-dasharray:none;marker-start:none;marker-end:url(#Arrow1Mend);display:inline"
       d="m 69.419736,58.911466 0,39.997748"
       id="path3155-2"
       sodipodi:nodetypes="cc" /><path
       inkscape:connector-curvature="0"
       style="fill:none;stroke:#000000;stroke-width:0.40000001;stroke-linecap:butt;stroke-linejoin:miter;stroke-miterlimit:4;stroke-opacity:1;stroke-dasharray:none;stroke-dashoffset:0;marker-start:none;marker-end:none;display:inline"
       d="m 69.798264,78.923214 c 0,0 2.996891,-0.38087 4.885056,-1.347344 2.054324,-1.051531 2.97981,-2.585587 2.97981,-2.585587"
       id="path7558"
       sodipodi:nodetypes="csc" /><path
       inkscape:connector-curvature="0"
       style="fill:none;stroke:#000000;stroke-width:0.56;stroke-linecap:butt;stroke-linejoin:miter;stroke-miterlimit:4;stroke-opacity:1;stroke-dasharray:none;stroke-dashoffset:0;marker-end:url(#Arrow1Mend-6);display:inline"
       d="M 69.207766,59.037814 102.78852,53.441191"
       id="path12930"
       sodipodi:nodetypes="cc" /><path
       inkscape:connector-curvature="0"
       d="m 76.912232,84.372023 c 0,0.525945 -0.140036,1.625579 -0.950841,1.625579 -1.100439,0 -2.321813,-2.234283 -2.321813,-4.049241 0,-0.746349 0.229961,-1.625586 0.950841,-1.625586 1.119528,0 2.321813,2.274865 2.321813,4.049248 z m -2.433209,-1.084521 c 0.13686,0.506849 0.295203,1.141009 0.61189,1.70356 0.214829,0.388295 0.506845,0.833085 0.864116,0.833085 0.38829,0 0.435238,-0.506851 0.435238,-0.960395 0,-0.389088 -0.06207,-0.792502 -0.251443,-1.57625 l -1.659801,0 z m 1.588194,-0.254619 c -0.09069,-0.363627 -0.255412,-1.038369 -0.556184,-1.610467 -0.276896,-0.53709 -0.578464,-0.926178 -0.920614,-0.926178 -0.260983,0 -0.428864,0.229951 -0.428864,0.96676 0,0.332592 0.05004,0.792502 0.255413,1.569885 l 1.650249,0 z"
       style="fill:#000000;fill-opacity:1;fill-rule:evenodd;stroke:none;display:inline"
       id="path13578" /><path
       inkscape:connector-curvature="0"
       d="m 71.706048,51.699872 c 0,0.01504 0.02223,0.102604 0.02223,0.108257 0,0.0096 0,0.08119 -0.0931,0.08119 -0.0812,0 -0.08757,-0.02467 -0.121743,-0.158343 l -0.459911,-1.830864 c -1.258772,-0.04063 -2.42445,-1.094069 -2.42445,-2.172223 0,-0.752715 0.556977,-1.380516 1.522939,-1.43621 -0.06517,-0.245866 -0.120934,-0.497302 -0.183001,-0.743167 -0.09623,-0.37238 -0.17426,-0.673948 -0.17426,-0.699409 0,-0.07718 0.05569,-0.08672 0.0931,-0.08672 0.04068,0 0.05642,0.0095 0.0812,0.03103 0.01502,0.01588 0.06204,0.208466 0.08672,0.317472 0.102607,0.388296 0.198929,0.786138 0.301565,1.180798 1.277879,0.04056 2.424457,1.109189 2.424457,2.172224 0,0.627793 -0.419328,1.355047 -1.519753,1.436209 l 0.443983,1.799828 z m -1.516569,-5.230824 c -0.47503,0.02143 -1.043942,0.298377 -1.043942,1.090879 0,0.954029 0.68031,2.063216 1.861917,2.165858 l -0.817975,-3.256737 z m 1.022445,3.256737 c 0.603131,-0.03103 1.056679,-0.397842 1.056679,-1.094068 0,-0.934931 -0.683496,-2.069576 -1.870658,-2.162669 l 0.813979,3.256737 z"
       style="fill:#000000;fill-opacity:1;fill-rule:evenodd;stroke:none;display:inline"
       id="path13582" /><path
       inkscape:connector-curvature="0"
       d="m 45.363746,33.43501 c -0.304759,-0.05889 -0.419343,-0.285651 -0.419343,-0.466274 0,-0.229951 0.17983,-0.30475 0.3135,-0.30475 0.286445,0 0.485375,0.245874 0.485375,0.503674 0,0.401027 -0.457513,0.580847 -0.855357,0.580847 -0.580846,0 -0.90391,-0.571298 -0.991426,-0.75192 -0.21722,0.71214 -0.80763,0.75192 -0.97869,0.75192 -0.969949,0 -1.483157,-1.24604 -1.483157,-1.457695 0,-0.03659 0.0374,-0.08355 0.102599,-0.08355 0.07795,0 0.09623,0.05572 0.115356,0.09309 0.32305,1.056671 0.960392,1.255595 1.237289,1.255595 0.428871,0 0.512421,-0.397842 0.512421,-0.627801 0,-0.208466 -0.05569,-0.425686 -0.171082,-0.882413 l -0.323034,-1.302535 c -0.143227,-0.5721 -0.419335,-1.094069 -0.922994,-1.094069 -0.04694,0 -0.286447,0 -0.485376,0.120945 0.342149,0.06841 0.420123,0.354879 0.420123,0.466274 0,0.193346 -0.143227,0.304742 -0.323049,0.304742 -0.229949,0 -0.475826,-0.198918 -0.475826,-0.503666 0,-0.397843 0.447198,-0.580847 0.854578,-0.580847 0.456718,0 0.780562,0.363626 0.979477,0.75192 0.151981,-0.559368 0.627808,-0.75192 0.981875,-0.75192 0.969943,0 1.482372,1.24604 1.482372,1.457695 0,0.04692 -0.0374,0.08355 -0.09623,0.08355 -0.08347,0 -0.0931,-0.04612 -0.120934,-0.124127 -0.257811,-0.836267 -0.808425,-1.224561 -1.237288,-1.224561 -0.332599,0 -0.512415,0.245865 -0.512415,0.637341 0,0.208474 0.03659,0.360452 0.189366,0.988246 l 0.332598,1.292987 c 0.14322,0.572099 0.466262,0.988245 0.904689,0.988245 0.0183,0 0.282466,0 0.484582,-0.120945 z"
       style="fill:#000000;fill-opacity:1;fill-rule:evenodd;stroke:none"
       id="path8624" /><path
       inkscape:connector-curvature="0"
       d="m 107.33282,48.101172 c -0.2586,-0.360447 -0.6286,-0.683496 -1.09406,-0.683496 -0.11536,0 -0.57211,0.0183 -0.71533,0.456726 0.0311,-0.0096 0.078,-0.0096 0.0962,-0.0096 0.28645,0 0.47582,0.245877 0.47582,0.466276 0,0.218014 -0.18063,0.295202 -0.32305,0.295202 -0.15277,0 -0.48536,-0.114636 -0.48536,-0.580846 0,-0.485376 0.41058,-0.817974 0.95164,-0.817974 0.95085,0 1.91124,0.873661 2.17859,1.930333 l 0.93253,3.711084 c 0.008,0.04702 0.0279,0.1026 0.0279,0.161517 0,0.140049 -0.11535,0.23632 -0.25779,0.23632 -0.0843,0 -0.28645,-0.03739 -0.36045,-0.32305 l -0.7026,-2.797624 c -0.0502,-0.170287 -0.0502,-0.189373 -0.12491,-0.295201 -0.18938,-0.264168 -0.50288,-0.587216 -0.96039,-0.587216 -0.53391,0 -0.58086,0.521964 -0.58086,0.780562 0,0.540275 0.25781,1.27389 0.51243,1.957386 0.10585,0.276911 0.16231,0.41058 0.16231,0.599946 0,0.397843 -0.28643,0.761476 -0.75271,0.761476 -0.87287,0 -1.22456,-1.379721 -1.22456,-1.457701 0,-0.03659 0.0374,-0.08359 0.1026,-0.08359 0.0867,0 0.0962,0.03739 0.13368,0.171081 0.22995,0.798861 0.5904,1.177612 0.96039,1.177612 0.0876,0 0.24905,0 0.24905,-0.313506 0,-0.245863 -0.10585,-0.522759 -0.24905,-0.883206 -0.46626,-1.246044 -0.46626,-1.560337 -0.46626,-1.7903 0,-0.900716 0.64688,-1.112358 1.12191,-1.112358 0.2769,0 0.61903,0.08672 0.95164,0.438427 l 0.012,-0.0096 c -0.14242,-0.559377 -0.2395,-0.932544 -0.5713,-1.39882 z"
       style="fill:#000000;fill-opacity:1;fill-rule:evenodd;stroke:none"
       id="path8626" /><path
       inkscape:connector-curvature="0"
       d="m 68.344534,103.98939 c 0.406587,0.46627 0.739187,0.76148 1.215011,1.18717 0.572088,0.49731 0.820344,0.73362 0.950841,0.87605 0.668376,0.65645 1.000975,1.20945 1.000975,1.28423 0,0.0772 -0.07795,0.0772 -0.09623,0.0772 -0.0652,0 -0.08432,-0.0398 -0.133685,-0.10502 -0.236324,-0.41058 -0.466273,-0.60949 -0.712136,-0.60949 -0.198927,0 -0.303959,0.0868 -0.484567,0.31429 -0.202115,0.23871 -0.363634,0.40022 -0.637355,0.40022 -0.696221,0 -1.112359,-0.86649 -1.112359,-1.06541 0,-0.0287 0.0096,-0.0876 0.0931,-0.0876 0.07795,0 0.08672,0.0405 0.115353,0.10583 0.161519,0.37955 0.618253,0.44797 0.798067,0.44797 0.198928,0 0.392274,-0.0684 0.591201,-0.15277 0.360446,-0.15197 0.512425,-0.15197 0.608702,-0.15197 0.0652,0 0.102602,0 0.152762,0.009 -0.314293,-0.3692 -0.829894,-0.82672 -1.255584,-1.21821 l -0.960391,-0.8824 c -0.581649,-0.59041 -0.932545,-1.15294 -0.932545,-1.2182 0,-0.0564 0.04607,-0.0779 0.102603,-0.0779 0.05894,0 0.0676,0.009 0.132878,0.12412 0.152775,0.23949 0.457529,0.59039 0.808425,0.59039 0.202102,0 0.295203,-0.0653 0.485361,-0.30393 0.179826,-0.20849 0.344533,-0.41058 0.646098,-0.41058 0.932546,0 1.467237,1.20863 1.467237,1.42665 0,0.0405 -0.0096,0.0963 -0.105851,0.0963 -0.07482,0 -0.08432,-0.0375 -0.115353,-0.13369 -0.207671,-0.55935 -0.770221,-0.78932 -1.140217,-0.78932 -0.198927,0 -0.388292,0.0685 -0.590395,0.15199 -0.379548,0.15277 -0.485374,0.15277 -0.606309,0.15277 -0.09623,0 -0.202115,0 -0.285653,-0.0375 z"
       style="fill:#000000;fill-opacity:1;fill-rule:evenodd;stroke:none"
       id="path8628" /><path
       inkscape:connector-curvature="0"
       style="fill:none;stroke:#000000;stroke-width:0.56000006;stroke-linecap:butt;stroke-linejoin:miter;stroke-miterlimit:4;stroke-opacity:1;stroke-dasharray:0.55999996, 1.11999993;stroke-dashoffset:0;marker-end:none;display:inline"
       d="M 69.83927,59.549151 87.187095,93.304022"
       id="path7029-6"
       sodipodi:nodetypes="cc"
       inkscape:transform-center-x="-7.1173364"
       inkscape:transform-center-y="-13.46816" /><path
       inkscape:connector-curvature="0"
       style="fill:none;stroke:#000000;stroke-width:0.56000006;stroke-linecap:butt;stroke-linejoin:miter;stroke-miterlimit:4;stroke-opacity:1;stroke-dasharray:0.55999999, 1.68000005;stroke-dashoffset:0;marker-end:none;display:inline"
       d="M 87.005576,41.175145 68.329824,60.004567"
       id="path11850-9-7"
       sodipodi:nodetypes="cc" /><path
       inkscape:connector-curvature="0"
       style="fill:none;stroke:#bebebe;stroke-width:0.31999999;stroke-linecap:butt;stroke-linejoin:miter;stroke-miterlimit:4;stroke-opacity:1;stroke-dasharray:none;marker-start:none;marker-end:none;display:inline"
       d="m 86.932818,40.779484 0,53.075192"
       id="path3155-2-1-4"
       sodipodi:nodetypes="cc" /><path
       inkscape:connector-curvature="0"
       style="fill:none;stroke:#000000;stroke-width:0.40000001;stroke-linecap:butt;stroke-linejoin:miter;stroke-miterlimit:4;stroke-opacity:1;stroke-dasharray:none;stroke-dashoffset:0;marker-start:none;marker-end:none;display:inline"
       d="m 63.869481,53.051764 c 0,0 3.123761,-0.979932 5.526786,-0.722005 2.614496,0.280638 4.427121,1.684609 4.427121,1.684609"
       id="path7558-2"
       sodipodi:nodetypes="csc" /><g
       id="g5427"
       transform="matrix(0.6561,0,0,0.6561,41.312131,34.256358)"><path
         id="path5296"
         style="fill:#000000;fill-opacity:1;fill-rule:evenodd;stroke:none"
         d="m 84.803181,75.767902 -1.567,-1.625 0.192,-0.18 1.363,1.231 1.375,-1.231 0.191,0.18 -1.554,1.625 z"
         inkscape:connector-curvature="0" /><path
         id="path5298"
         style="fill:#000000;fill-opacity:1;fill-rule:evenodd;stroke:none"
         d="m 86.906728,69.580811 c 0,2.102 -1.242,2.532 -1.973,2.532 -0.945,0 -2.14,-0.621 -3.035,-2.246 -0.609,-1.125 -0.98,-2.75 -0.98,-3.719 0,-1.730996 0.906,-2.519996 1.984,-2.519996 0.801,0 1.852,0.465 2.676,1.683996 1.004,1.469 1.328,3.371 1.328,4.269 z m -4.172,-1.425 c 0.168,0.695 0.477,1.781 0.836,2.406 0.277,0.488 0.766,1.121 1.34,1.121 0.504,0 0.719,-0.523 0.719,-1.231 0,-0.753 -0.266,-1.792 -0.395,-2.296 l -2.5,0 z m 2.356,-0.571 c -0.743,-3.206996 -1.746,-3.526996 -2.164,-3.526996 -0.168,0 -0.418,0.047 -0.586,0.418 -0.145,0.32 -0.145,0.789 -0.145,0.801 0,0.678996 0.266,1.792996 0.395,2.307996 l 2.5,0 z"
         inkscape:connector-curvature="0" /></g><g
       id="g5431"
       transform="matrix(0.6561,0,0,0.6561,34.888833,55.78226)"><path
         id="path5300"
         style="fill:#000000;fill-opacity:1;fill-rule:evenodd;stroke:none"
         d="m 104.27354,74.865585 -1.567,-1.625 0.192,-0.18 1.363,1.231 1.375,-1.231 0.191,0.18 -1.554,1.625 z"
         inkscape:connector-curvature="0" /><path
         id="path5302"
         style="fill:#000000;fill-opacity:1;fill-rule:evenodd;stroke:none"
         d="m 104.41873,71.670811 c 0.035,0.145 0.035,0.168 0.035,0.18 0,0.168 -0.168,0.168 -0.277,0.168 -0.239,0 -0.25,-0.024 -0.309,-0.274 l -0.598,-2.367 c -0.047,-0.156 -0.047,-0.168 -0.058,-0.179 -0.028,-0.012 -0.039,-0.024 -0.242,-0.036 -2.461,-0.144 -3.934003,-1.843 -3.934003,-3.359 0,-1.280996 1.031003,-2.151996 2.785003,-2.214996 l -0.512,-2.113 c 0,-0.168 0.168,-0.168 0.274,-0.168 0.191,0 0.254,0.012 0.301,0.215 l 0.418,1.672 c 0.082,0.347 0.093,0.359 0.105,0.371 0.027,0.011 0.051,0.011 0.242,0.023 2.426,0.145 3.934,1.820996 3.934,3.359996 0,1.281 -1.031,2.152 -2.789,2.214 l 0.625,2.508 z m -2.489,-7.647996 c -1.027,0.058 -1.66,0.5 -1.66,1.468996 0,0.335 0.129,1.433 0.75,2.222 0.422,0.528 1.114,0.934 2.094,1.016 l -1.184,-4.706996 z m 1.758,4.706996 c 1.028,-0.059 1.66,-0.5 1.66,-1.469 0,-0.336 -0.128,-1.434 -0.75,-2.222996 -0.421,-0.527 -1.113,-0.933 -2.093,-1.015 l 1.183,4.706996 z"
         inkscape:connector-curvature="0" /></g><path
       inkscape:connector-curvature="0"
       style="fill:none;stroke:#000000;stroke-width:0.56;stroke-linecap:butt;stroke-linejoin:miter;stroke-miterlimit:4;stroke-opacity:1;stroke-dasharray:none;marker-start:none;marker-end:url(#Arrow1Mend);display:inline"
       d="m 86.930807,93.690218 6.10147,-9.88072"
       id="path3155-2-15"
       sodipodi:nodetypes="cc" /><path
       inkscape:connector-curvature="0"
       style="fill:none;stroke:#000000;stroke-width:0.56;stroke-linecap:butt;stroke-linejoin:miter;stroke-miterlimit:4;stroke-opacity:1;stroke-dasharray:none;marker-start:none;marker-end:url(#Arrow1Mend);display:inline"
       d="M 87.270166,93.651888 97.2872,98.338711"
       id="path3155-2-15-2"
       sodipodi:nodetypes="cc" /></g></svg>